<?xml version="1.0" encoding="UTF-8" standalone="no"?>
<svg xmlns="http://www.w3.org/2000/svg" xmlns:xlink="http://www.w3.org/1999/xlink" viewBox="0 0 2560 512" version="1.1">
<!--   <style>
    @media (prefers-color-scheme: light) {
      path, rect {
      	-webkit-filter: invert(100%);
  			filter: invert(100%);
  		}
  		.border {
      	-webkit-filter: invert(25%);
  			filter: invert(25%);
  		}
    }
  </style> -->
<!--<rect x="9.5" y="285.5" fill="black" width="901" height="130"/>-->
<rect width="2560" height="512" fill="#000000" />
<g transform="translate(820 45)">
	<path fill="white" d="M208.02,383.77c-0.51,2.67-3.17,4.83-5.84,4.83H175c-2.67,0-4.32-2.16-3.68-4.83l6.86-32.51l-19.3,28.96
		h-3.81l-6.98-28.96l-6.99,32.51c-0.51,2.67-3.17,4.83-5.71,4.83h-27.18c-2.67,0-4.32-2.16-3.81-4.83l14.22-66.67
		c0.51-2.54,3.05-4.7,5.71-4.7h27.3c2.03,0,3.3,1.4,3.81,3.17l8.13,33.65l22.48-33.65c1.14-1.78,3.05-3.17,5.08-3.17h27.3
		c2.67,0,4.32,2.16,3.81,4.7L208.02,383.77z"/>
	<path fill="white" d="M372.35,323.45c-0.51,2.67-3.05,4.83-5.59,4.83h-35.69l-3.3,15.49h23.5c2.54,0,4.19,2.16,3.56,4.83
		l-0.89,4.06c-0.51,2.54-3.05,4.7-5.59,4.7h-23.5l-3.3,15.37h35.69c2.54,0,4.19,2.16,3.68,4.83l-1.4,6.35
		c-0.51,2.54-3.05,4.7-5.59,4.7h-69.72c-2.54,0-4.06-2.16-3.56-4.7l14.22-66.8c0.51-2.54,3.05-4.7,5.59-4.7h69.6
		c2.54,0,4.19,2.16,3.68,4.7L372.35,323.45z"/>
	<path fill="white" d="M523.35,375.9c-1.4,6.99-10.41,12.7-19.94,12.7h-67.44c-2.67,0-4.32-2.16-3.81-4.83l14.22-66.67
		c0.51-2.54,3.05-4.7,5.71-4.7h67.56c9.52,0,16,5.71,14.48,12.7L523.35,375.9z M487.79,323.45h-5.97l-11.43,53.97h5.97
		c5.46,0,10.67-3.94,11.81-8.89l7.62-36.07C496.81,327.51,493.26,323.45,487.79,323.45z"/>
	<path fill="white" d="M631.18,383.77c-0.51,2.67-3.17,4.83-5.71,4.83h-27.3c-2.67,0-4.32-2.16-3.81-4.83l14.22-66.67
		c0.51-2.54,3.05-4.7,5.71-4.7h27.3c2.67,0,4.32,2.16,3.81,4.7L631.18,383.77z"/>
	<path fill="white" d="M814.95,378.44c-5.59,5.84-13.46,10.16-21.34,10.16h-17.15c-7.62,0-11.68-3.94-11.68-10.16v-5.08h-18.8
		l-4.57,10.54c-1.14,2.54-4.45,4.7-7.11,4.7h-30.61c-2.16,0-3.05-1.78-2.67-3.94c0.13-0.64,0.38-1.27,0.76-1.91l35.56-65.66
		c1.4-2.41,4.45-4.7,7.11-4.7h47.75c2.67,0,4.7,2.29,5.08,4.7l6.35,54.99c0.38,3.17,4.57,4.95,7.37,4.95c1.78,0,3.56-1.02,4.7-2.54
		L814.95,378.44z M764.53,329.8l-13.84,32.26h14.1L764.53,329.8z"/>
</g>
<g transform="translate(820 45)">
	<path fill="white" d="M895.01,387.61c2.16,0,4.28,0.55,6.34,1.67c2.06,1.11,3.67,2.7,4.82,4.77c1.15,2.07,1.73,4.22,1.73,6.47
		c0,2.22-0.57,4.36-1.7,6.41c-1.13,2.05-2.72,3.64-4.77,4.78s-4.18,1.7-6.42,1.7c-2.23,0-4.37-0.57-6.42-1.7
		c-2.05-1.13-3.64-2.73-4.78-4.78c-1.14-2.05-1.71-4.19-1.71-6.41c0-2.24,0.58-4.4,1.74-6.47c1.16-2.07,2.77-3.66,4.83-4.77
		C890.73,388.16,892.84,387.61,895.01,387.61z M895.01,389.74c-1.81,0-3.58,0.46-5.29,1.39c-1.71,0.93-3.06,2.26-4.02,3.98
		c-0.97,1.73-1.45,3.52-1.45,5.39c0,1.86,0.48,3.64,1.43,5.34s2.28,3.03,3.99,3.98c1.71,0.95,3.49,1.43,5.35,1.43
		c1.86,0,3.64-0.48,5.35-1.43c1.71-0.95,3.04-2.28,3.98-3.98c0.95-1.7,1.42-3.48,1.42-5.34c0-1.87-0.48-3.67-1.44-5.39
		c-0.96-1.73-2.3-3.05-4.03-3.98C898.57,390.21,896.81,389.74,895.01,389.74z M889.35,407.64v-13.88h4.77
		c1.63,0,2.81,0.13,3.54,0.38c0.73,0.26,1.31,0.7,1.74,1.34c0.43,0.64,0.65,1.32,0.65,2.03c0,1.01-0.36,1.9-1.09,2.65
		s-1.68,1.17-2.88,1.26c0.49,0.21,0.88,0.45,1.18,0.74c0.56,0.55,1.24,1.46,2.05,2.75l1.69,2.72h-2.73l-1.23-2.19
		c-0.97-1.72-1.75-2.8-2.34-3.23c-0.41-0.32-1.01-0.48-1.79-0.48h-1.32v5.9H889.35z M891.59,399.82h2.72c1.3,0,2.18-0.19,2.66-0.58
		c0.47-0.39,0.71-0.9,0.71-1.54c0-0.41-0.11-0.78-0.34-1.1c-0.23-0.32-0.54-0.57-0.95-0.73c-0.41-0.16-1.15-0.24-2.25-0.24h-2.55
		V399.82z"/>
</g>
<rect transform="translate(820 45)" fill="white" width="910" height="275.5"/>
<g transform="translate(820 45)">
	<path d="M203.37,223.18l-0.7,1.95l-2.27,0.87h-12.25l-9.62-0.22h-2.8l-7.88,0.43h-2.27l-1.58-0.87l-1.4-1.73l-5.6-9.76l-1.58-2.6
		l-5.6-9.32l-1.57-2.6l-4.9-9.97l-1.57-2.6l-5.6-9.32l-1.23-1.73l-1.05-0.65l-2.1-0.22l-5.6-0.43l-2.27,0.22l-1.4,1.3l-0.52,2.82
		l-0.35,11.92l0.17,3.47l0.7,12.14l0.17,3.47l0.18,5.2v3.47l-0.18,3.47l-0.35,2.6l-0.88,1.08l-1.93,0.65h-2.8l-8.4-0.65l-8.05,0.65
		h-2.8l-8.05-0.65l-2.1-0.43l-1.05-0.87l-0.35-2.17l-0.17-3.04l-0.18-3.25l0.35-5.64l0.17-3.47l0.7-11.71v-3.47l-0.52-11.71
		l-0.18-3.47l-0.17-11.49v-3.47l0.52-11.71v-3.47l-0.52-11.71v-3.47l0.52-11.71v-3.47l0.35-11.49v-3.47l-0.17-11.71v-3.47
		l-0.35-7.15l0.17-3.25l0.18-1.3l0.52-2.82l1.05-1.73l2.1-0.65l1.4-0.22l2.63-0.22l7.88,0.43l20.83,0.87l11.9-0.87h2.8l11.55,0.87
		h6.65l2.97,0.22l2.63,0.65l3.67,1.3l2.62,1.08l2.62,1.3l2.8,1.3l2.62,1.52l2.27,1.73l3.33,2.82l1.92,1.95l1.75,2.17l1.75,2.6
		l2.45,4.34l1.58,2.82l2.1,4.12l1.23,3.04l1.22,3.25l0.88,3.47l0.53,3.47l0.17,3.47l0.35,4.77v3.47l-0.18,3.47l-0.35,3.69
		l-0.53,3.69l-0.7,3.47l-1.05,3.25l-1.23,3.25l-1.57,3.25l-1.58,2.82l-1.57,2.6l-1.58,2.38l-2.8,3.47l-1.92,1.95l-3.5,2.38
		l-2.1,1.52l-2.27,1.52l-2.28,0.65l-1.4,0.65l0.7,1.73l6.3,11.06l1.58,2.6l6.3,10.62l1.75,2.6l6.3,10.84l1.75,2.6l5.43,7.8
		l1.58,2.38L203.37,223.18z M91.54,92.46l0.7,0.65l0.35-0.22l0.35-0.43l-0.17-0.22L91.54,92.46z M92.94,112.41l0.7-0.43l0.17-0.87
		l-0.52-0.22l-0.7,0.22l-0.35-0.22l-0.35,0.22l0.17,0.87L92.94,112.41z M93.12,105.69l0.17,0.65l0.7,0.43l0.7-0.43l0.53-1.52
		l-0.7-1.52L93.12,105.69z M93.47,75.77l0.7,1.3l0.35-1.08l-0.17-1.3l-0.35-0.22l-0.35,0.22L93.47,75.77z M94.34,90.08l-0.88,1.73
		l1.75,0.65l-0.18,2.6h0.18l0.7-2.17l1.23-1.08l1.58,0.22l1.75,2.82l1.05-0.22l0.35-1.95l-0.35-0.65l0.52-2.6l1.05,1.08v0.65
		l0.17-0.22l0.88,2.38l1.4,0.65l0.52-0.22v-0.22h0.35l0.52-1.52l0.52-0.43l0.88,0.43l1.05-0.43l-0.53-1.52h-1.4l-0.17-0.22h-0.18
		l0.35-1.52l1.05-0.65l1.05,0.87l-0.17-1.3l-0.88-0.65h-0.17l0.7-1.3h0.17v0.65l0.35,0.22l0.35-0.65v-0.22h0.17l1.58,2.17l-0.18,1.3
		l0.88,0.65v-1.95l2.45-1.73l0.52,1.08l1.05-0.22l-1.4-1.52h-0.7l-0.52,0.87l-0.88-0.22l-0.53,0.87v0.87h-0.7l-0.35-1.08l-0.7-0.43
		l2.28-1.52l0.52-1.08l-0.52-0.22l-1.4,0.87l-0.17-1.3h-0.7l-0.35,0.65l-0.53-0.65v-0.22l0.88-1.3l0.53,0.43l1.4-0.43l1.05,0.43
		l0.52,0.87l1.23-0.22l-1.4-1.08l0.35-2.17l-1.4-1.3h-0.7l-0.52-0.65h0.35l0.17-0.43l-0.52-0.65l-2.8,1.3l0.35,1.3l-1.4,4.12h-0.18
		v0.87l-4.38,0.22l-0.52,0.87l0.52,0.65h0.88v0.87l-0.35,0.65l-0.88-0.43l-0.88,0.65v1.52l-2.45,0.87l-0.35-0.65h-0.7l-0.35-0.87
		l-1.23-0.22l-0.18-0.65l0.18-0.87l1.23-0.43l-0.53-0.43l0.18-1.08l2.27-0.65v-1.3l-1.23-0.22l-0.52-0.65l-0.17-2.38l0.7-1.52
		l-0.88-1.52v-0.65l-1.23-0.65l-0.52,0.87l1.23,7.37l-2.62,2.6h-0.88l-0.52,1.08L94.34,90.08z M99.24,203.02h-0.7l-0.7,0.43
		l-1.23-0.22l-0.52-0.65v-0.87l0.7-0.43l-0.17-1.52l-2.98-0.22v1.52l0.52,0.43l-0.17,1.73l5.08,0.65L99.24,203.02z M94.87,81.19
		l-0.7-0.22l-0.35,0.87l0.18,0.87l-0.18,0.43l0.18,0.43l0.88-0.22l0.35-1.08L94.87,81.19z M94.87,142.54l0.17-0.43l-0.17-0.43h-0.88
		l-0.18,0.22l0.18,0.43L94.87,142.54z M94.69,145.79l0.18-0.87l-0.7,0.22l-0.35,0.65v0.22l0.35,0.22L94.69,145.79z M94.52,166.82
		h-0.17l-0.35,0.22v0.43l0.17,0.22l0.52-0.43v-0.22L94.52,166.82z M114.99,100.7l-0.7-0.43l-5.43,1.3l-1.4-1.3l-0.7-2.6l-0.7-0.65
		l-2.45,1.08l-1.4-1.08l-0.52,1.95h-1.93v0.22l1.58,0.65l0.88,1.3l-0.18,1.95l-2.1,2.17l-0.18-0.22h-0.35l-1.05-1.08l-0.35,2.82
		l-3.15,1.52l2.1,0.87l2.62-3.04l4.38,0.65l-0.18,0.87l-2.62,1.73l-0.17,2.38l1.4,0.87l0.18,0.43l-0.35,1.08l0.35,1.08l1.05-0.65
		v-1.52l0.17-0.22v-0.22l1.05,0.22l0.52,1.3l-0.52,1.3l1.05-0.22l0.35-1.3l1.05,0.65v1.3l-1.23,0.87l-0.35,0.87h-1.05l-0.35,0.87
		h1.4l1.4,2.82l-0.88,0.65l0.18,1.08l1.05-1.52v-0.87l-0.7-1.08l0.18-0.65l-0.52-0.43h-0.7v-0.87l0.88-0.22l0.17-0.87l1.58,3.04
		h0.35l0.35-0.65l-0.7-0.87v-0.65h0.88v-0.87l-0.52-0.43l0.17-0.43l0.53-0.22l0.88,1.08l-0.18,0.87l0.35,1.3l-0.88,1.73v1.3
		l0.88-1.52l1.58,0.43l0.88-1.73v-0.65l0.35-0.65l0.35,0.43l0.52-0.43l-1.05-3.25l-1.4,0.43l-2.62-1.52v-0.22h-0.53l-0.35-4.99
		l-0.7-0.65l-0.35,0.65v1.08h-0.7l-0.35-0.43l0.17-1.08l-0.52-0.87h-1.05l-0.18-3.9l0.52-0.43l0.18-1.3l0.52-0.43l1.05,1.73
		l0.35-0.65l0.7,0.22l0.52,2.6h1.05l0.17-1.52l0.35-0.43l2.98,0.43L114.99,100.7z M97.49,94.42v-0.43l-0.18-0.22h-0.17l-0.7,0.65
		v1.08l-0.17,0.22v0.22l-1.05,1.52l0.17,1.73l0.88,0.65l0.7-0.65h0.7l-0.88-3.25l0.18-0.22l0.7,1.3l0.7-1.52l-0.7-1.73L97.49,94.42z
		 M96.27,207.14l-0.17-1.52l-0.35-0.43l-0.52,0.65l0.17,1.73h0.35L96.27,207.14z M96.79,101.79L95.92,102l0.7,3.69l0.52-1.08
		L96.79,101.79z M96.79,137.12l0.18,1.08h0.52l2.8-0.87l-0.88-0.87L96.79,137.12z M97.14,142.97l0.35,0.87l0.88,0.43l0.17-0.87
		l-0.52-0.65L97.14,142.97z M98.89,111.54h-1.58l0.88,0.87L98.89,111.54z M97.32,121.51l0.35,0.65l0.35,1.52l0.7-0.43v-0.87
		l2.27-0.43l0.17-0.22v-0.22l2.8,0.65l0.35-0.22l0.17-0.43l-3.85-2.38v-0.43l-0.35-0.43h-1.05l-0.17,1.73l1.05-0.87l-0.88,1.73
		h-0.17l-0.53,0.43h-0.52l-0.35-0.43L97.32,121.51z M97.32,129.75l0.18,0.65l0.52,0.43l0.7-1.08l-0.18-0.65l-0.52-0.22l-0.52,0.22
		L97.32,129.75z M101.69,83.79h-0.7l-0.88,1.08l-2.27,1.95l1.57,0.22l0.7-1.52l1.05,0.65l0.7-1.95L101.69,83.79z M98.02,114.79
		l-0.17,1.3l0.88,1.95l0.7-2.17l-0.35-1.3L98.02,114.79z M98.54,147.09h-0.52l-0.17,0.22v0.65l0.35,0.22l0.35-0.22l0.18-0.43
		L98.54,147.09z M97.84,170.07l0.35,0.65h0.35l0.18-0.43l-0.35-0.43L97.84,170.07z M99.59,150.56l-0.7-0.87l-0.88-0.22v0.65
		l0.52,0.65L99.59,150.56z M100.29,141.89l0.88-0.22l0.18-0.87l-0.35-0.87l-1.4-0.65l-1.4,0.65L100.29,141.89z M98.37,102l1.23,0.65
		l1.23-0.65l-1.23-0.87L98.37,102z M99.24,96.8l0.88-0.87l-0.35-0.65l-0.17-0.87l-0.35-0.22l-0.52,0.87L99.24,96.8z M99.24,167.04
		h-0.35l-0.17,0.87l0.17,0.22l0.52-0.43v-0.43L99.24,167.04z M100.64,182.64l1.4,0.65l0.53-0.22v-0.87l-1.23-0.43l0.52-1.52
		l-0.17-0.65l-1.4-1.3h-1.05l1.4,1.95l-1.05,3.04L100.64,182.64z M99.77,80.54l0.7,0.22l0.35-0.22l0.17-0.43l-0.52-0.43h-0.7V80.54z
		 M104.84,139.5l-2.1-0.22l0.7,1.73l-2.62,2.38l-1.05,1.95l1.23-0.43l1.75,0.87l1.05-1.3l-2.1,0.22v-1.3L104.84,139.5z
		 M100.64,148.61l1.23-1.3l-0.17-0.65l-1.05,0.22l-0.88,1.08L100.64,148.61z M99.94,154.03l0.7,0.43l1.05-0.22l0.35-0.43v-0.65
		l-0.52-0.43l-0.7,0.43l-0.7,0.22L99.94,154.03z M100.47,123.9l-0.35,2.6l1.23-0.22v-1.3L100.47,123.9z M100.64,77.51l0.52,1.08
		l0.7-0.22l0.35-0.87l1.23-0.65l-2.45-0.87l-0.35,0.43V77.51z M102.74,209.74l-0.88,0.43l-0.52-0.65l-0.52,0.22l0.17,0.43l1.4,0.43
		L102.74,209.74z M101.69,96.58l0.17-0.22l-0.17-1.52l-0.35,0.87L101.69,96.58z M105.19,79.89l-1.75-0.87l-1.58,1.95l0.52,1.08
		l0.35-0.87l1.05-0.43l2.98,1.73l-0.7-1.52l0.7-2.6l-0.88-0.22L105.19,79.89z M105.37,131.92l0.88-8.24l-0.88-1.3v6.07l-0.7,0.65
		h-0.7l-0.35-1.08l-1.4,0.22l0.17,2.17l-0.52,1.08v0.87h1.4l0.52-0.65L105.37,131.92z M104.49,149.69l0.18-1.52l-0.7-0.43
		l-1.75,0.65l-0.35,0.87l0.88,1.73h0.7L104.49,149.69z M103.79,93.98v-0.43l-0.88-1.3l-0.52,0.65l-0.17,2.17h0.17l0.52,0.43v0.22
		l0.88,1.08l1.23,0.22l0.18-0.65l0.7,0.65l1.93-1.73l-2.98-0.22l-0.7-1.3L103.79,93.98z M102.39,124.33h0.35l0.52-0.43l-0.17-0.43
		l-0.35-0.22l-0.52,0.43L102.39,124.33z M103.97,196.52h0.7l0.88,0.22v-0.65h-0.18l-0.17-0.22h-0.18l2.28-5.85l-0.18-0.22h-0.35
		l-2.98,2.6h-0.7l-0.35,1.08l1.05,0.87v-0.65l0.53,0.22l-0.18,0.22l0.18,1.3l-0.35,0.65h-0.35v0.22h0.17L103.97,196.52z
		 M104.14,162.27l0.18-0.22l-0.53-2.6l-0.52-0.43l-0.17,1.08l0.52,1.08l-0.17,1.73l0.35,0.87h0.35l0.18-0.22L104.14,162.27z
		 M104.67,126.71l-0.35-0.43h-0.53v0.43l0.35,0.22L104.67,126.71z M104.32,134.95l-0.53,0.43l0.35,0.43l0.35-0.22l0.18-0.22v-0.43
		H104.32z M109.74,178.31l-0.17-0.87h-0.52l-0.18,0.65h-0.52l-0.35-0.43l-0.35-2.82l-0.7-0.22l-0.35-1.73l-2.62,1.08l2.27,1.08
		l1.23,2.82l-0.88,1.3l-0.17,1.52l-1.05,1.08l1.4,1.08l0.88-1.73l-0.52-0.43l0.18-1.08l1.57,0.22L109.74,178.31z M104.32,208.22
		l2.45,1.3l0.53,0.43l-1.05-1.52l-1.75-0.43L104.32,208.22z M109.74,147.53l-0.17,0.43l0.35,0.43l0.7-0.43v-1.52l-0.17-0.22
		l-0.17,0.87l-0.53,0.22V147.53l-2.62-2.17h-1.4l-0.88,1.08l0.88,1.3L109.74,147.53z M106.07,159.88l-1.05-0.65l0.53,2.38l0.52-0.22
		l0.17-0.65L106.07,159.88z M107.64,211.69l-0.88-0.87h-0.52l1.05,1.08L107.64,211.69z M107.12,125.85l-0.17,1.3l-0.35,0.87
		l0.17,0.87l0.7-0.22l0.35-1.95l0.7-0.65L107.12,125.85z M110.62,144.06l-3.85-0.43l0.18,0.65l0.88,0.65h1.75L110.62,144.06z
		 M109.57,201.5l-0.88-0.87l-0.52-0.43l-1.05,0.43l2.45,1.3V201.5z M110.27,124.33l0.17-0.43l-1.4-1.08l-1.4,1.08L110.27,124.33z
		 M108.34,133.87l-0.52,0.65v0.43h0.52l0.52-1.73l-0.7-0.65L108.34,133.87z M114.82,97.45h0.17l0.53-0.43l1.4-0.43l-0.52-0.87
		l-0.7-0.22l-0.52-1.52l0.17-1.52l-0.35-0.43l0.7-3.47l-0.17-0.65l-0.53-0.22l-1.4,2.82l-0.88-0.65h-0.88l0.35,1.52l-1.23-0.87
		l-1.23,0.65l0.18,1.3l0.7,0.22l-1.22,0.65l-0.35-0.43l-0.18,1.08l-0.7,0.65h0.7v0.22l0.18-0.22l1.92,1.08l1.05-1.08h-1.75v-0.22
		l-0.18-0.22l1.05-1.52l1.57-0.43l0.7-1.3l-0.52,1.95h-0.53l-0.35,0.43l0.17,1.52h1.4l-0.17-0.65l-0.52-0.43v-0.22l1.92,2.17
		l-0.17,0.87l-0.35,0.22l0.17,0.43l-0.52-0.22l-0.88,0.87h1.75l0.17-0.22L114.82,97.45z M110.44,108.51l-1.23,3.47l1.05-0.65
		l1.57,0.87l0.52-0.22v-0.87l-1.22-0.87l0.7-1.95l-1.57-1.73l-0.7,0.65l0.52,0.43L110.44,108.51z M109.22,127.58v0.87l0.88-0.65
		v-0.43L109.22,127.58z M109.74,159.23l1.05,1.08l-0.18-0.65l-0.7-0.65L109.74,159.23z M112.37,131.48l0.35-1.73l-1.4,1.73
		l-0.52-0.43l-0.18,0.87L112.37,131.48z M111.67,163.35l-0.35-0.65l-0.52-0.65v0.43L111.67,163.35z M111.49,142.54l-0.35,0.65v0.22
		l0.35,0.22l0.35-0.43v-0.43L111.49,142.54z M111.49,123.46l0.53-0.22l0.52-0.65l-1.23,0.22L111.49,123.46z M114.64,155.11
		l-0.7-1.08l-1.4-0.22l-1.05,1.08l2.1,0.65L114.64,155.11z M113.77,188.5l-1.05,1.73l-0.52-0.43l-0.17,0.87h0.7l0.88-0.65
		L113.77,188.5z M114.47,109.81h0.18l0.17-0.87l-0.17-0.22h-0.88l-0.7,0.65v0.87l1.05,0.87l0.7-0.22L114.47,109.81z M113.77,124.98
		v0.43l0.35,0.22l0.35-0.87l0.35-4.34l-1.05,1.08l0.35,1.52l-1.05,0.65L113.77,124.98z M113.59,111.97l-0.17,0.87v0.22l0.35,0.22
		l0.52-0.65L113.59,111.97z M115.34,149.04l1.05,0.22v-0.43l0.17-0.22l-0.35-0.87l0.18-0.43l-0.35-0.22l-1.23,0.22l-0.17,0.87
		L115.34,149.04z M117.44,143.41l-0.52-0.65l-0.7-0.22l-0.88,0.43l0.18,0.87h0.52l0.52-0.43H117.44z M115.87,111.97l0.52,0.43
		l0.52-0.22l0.17-1.95l-1.05,0.87L115.87,111.97z M116.04,79.24l0.35,0.65h0.35l0.17-0.22l-0.17-0.65l-0.7-0.65V79.24z
		 M117.09,81.19l-0.88,1.95l0.88,1.73l0.53-3.47L117.09,81.19z M117.44,119.78l-0.35-1.52l-0.35-1.3l-0.53,1.52L117.44,119.78z
		 M117.44,123.03l-0.17-0.65l-0.52-0.22l-0.35,0.22l-0.18,0.65l0.7,1.3L117.44,123.03z M117.27,155.11l-0.35-1.73l-0.7,0.87
		L117.27,155.11z M117.44,92.03l-0.17-0.87l-0.18-0.22l-0.35,0.22l-0.18,0.87l0.35,0.22L117.44,92.03z M118.14,117.39l-0.7-0.65
		l-0.88-0.65l0.7,1.3H118.14z M117.44,146.22l-0.17-0.22l-0.7,0.43l0.52,0.43h0.35V146.22z M119.37,94.42l-0.35-0.87h-1.05
		l-0.88,1.08l2.1,0.65L119.37,94.42z M118.84,85.74l1.93,0.65l0.7-0.22l-0.18-0.87l-1.58-0.43l-0.52-0.87L118.84,85.74z
		 M119.54,90.3l0.35-0.65L119.72,89l-0.52,0.43v0.65L119.54,90.3z M121.64,158.8l-0.7-0.43l-0.88,0.22l-0.35,0.22l0.53,1.08
		l1.23-0.65L121.64,158.8z M120.24,82.06l0.35,0.65l0.52,0.22v-0.65l-0.52-0.65l-0.35,0.22V82.06z M123.74,149.91l-1.05-1.08
		l-0.7-0.43l-0.52,0.22l-0.18,0.65l0.35,0.87l1.05,0.65L123.74,149.91z M121.64,92.46l1.92-0.22l0.88,0.65h0.7l0.17-1.73l-0.52-0.65
		l0.35-2.17l-3.33-0.22l0.53,1.08v1.08l-0.7,0.22V92.46z M121.64,94.42l0.17,0.87l1.23,0.87l0.52-0.87l-0.35-0.87H121.64z
		 M153.49,140.81l2.27-1.08l2.1-1.52l1.75-2.6l1.23-3.25l0.7-3.47l0.17-3.47l-0.17-3.69l-0.35-3.69l-0.7-3.25l-1.23-3.25l-1.57-2.6
		l-1.93-1.95l-2.45-1.3l-3.85-1.08l-2.8-0.43l-8.75-0.22h-2.8l-8.93,0.65l-2.1,0.22l-1.23,0.65l-1.05,1.3l-0.17,2.38l0.17,4.99
		l0.35,3.47l0.35,3.69l0.17,3.69l-0.35,11.92l0.17,2.38l0.35,1.3l1.23,0.65l2.1,0.43l9.1,0.87h2.8l11.55-0.87L153.49,140.81z
		 M122.52,78.16l1.4,1.95l-0.35,0.87l0.7,0.22l-0.35-2.6L122.52,78.16z M128.82,152.51l0.17-0.22l-0.7-0.87h-1.05l-1.05-1.3
		l-1.4,0.22l-0.35,0.87l1.58,1.3l1.23-0.65l1.58,0.87V152.51z M124.79,84.44l1.23-0.22l0.52,0.65h0.53v-0.65l-1.58-0.65
		L124.79,84.44z M127.24,89.21l-0.35,0.22l0.35,0.87l0.35-0.43v-0.43L127.24,89.21z M127.94,87.91l0.17,0.65l0.52,0.22l0.52-0.22
		l0.35-0.65l-0.17-0.65l-0.7-0.22l-0.52,0.22L127.94,87.91z M130.22,157.93l-0.7-0.43l-0.52,0.22v0.43L130.22,157.93z
		 M130.57,147.31l-0.88,0.22l-0.35,3.04l1.23-2.17V147.31z M131.62,80.76l0.35,1.08h0.88v-0.87l-0.35-0.65v-1.3L131.62,80.76z
		 M131.62,87.05l0.18,0.43h0.7l0.18-0.22l-0.18-0.43l-0.7-0.22L131.62,87.05z M133.54,94.42l-1.23-0.22l-0.18,0.87l0.18,0.43
		l0.52,0.22l0.7-0.22l0.52-0.65L133.54,94.42z M133.37,153.38l0.35-0.65l-0.35-0.43l-0.52,0.43l-0.17,0.87L133.37,153.38z
		 M132.84,156.2l0.52,0.43l0.7-0.22l-0.35-0.87l-0.7-0.22L132.84,156.2z M134.94,161.83l-0.7-0.65l-0.7,0.22l-0.35,0.87l0.17,0.65
		l0.88-0.22L134.94,161.83z M134.77,79.02l0.35,1.3l0.18-0.43l0.17-0.22v-0.43L134.77,79.02z M136.52,88.35l-1.4-0.22l-0.17,0.43
		l0.7,0.22l0.35,0.65l0.52,0.22l0.35-0.43L136.52,88.35z M139.84,152.94l-0.52-0.43l-0.35,0.43l0.18,0.43h0.52L139.84,152.94z
		 M141.07,147.31l-0.35-0.22h-0.17l-0.18,0.22l0.35,0.65h0.35V147.31z M141.77,153.6h0.35l0.18-0.22l-0.18-0.43l-0.7-0.22
		l-0.18,0.43L141.77,153.6z M143.34,168.34l-1.05,0.22l-0.18,1.52L143.34,168.34z M145.09,158.36l-0.35,0.87l-2.45,0.65l0.88,0.43
		l0.35,1.3v0.43l0.35,0.22l0.17-0.22h0.17l-0.17-1.52l1.23-0.22l0.17-0.22l0.18-1.95l-0.53-1.08l-0.17,0.65L145.09,158.36z
		 M143.87,169.64l-0.18-1.95l-0.35,1.08L143.87,169.64z M143.87,164.22h0.52v-0.87l-0.7,0.43L143.87,164.22z M146.67,173.76
		l-1.4,0.43l-0.88-0.43l0.17,1.08h1.75L146.67,173.76z M145.27,162.92l-0.18,0.43l0.35,0.43l1.23-1.3l-0.52-0.65l-0.7-0.22
		l-0.35,0.43L145.27,162.92z M146.84,165.3l-0.35-0.43h-0.18l-0.88,0.22v0.65l0.52,0.43L146.84,165.3z M147.72,175.71h-0.17
		l-0.17,0.22v0.43h0.35V175.71z M149.12,165.3h0.52l0.35-0.87l0.35-0.43v-0.87l-1.05-0.43l-0.52,0.43l-0.18,1.3L149.12,165.3z
		 M158.04,160.32l0.7-1.95l-1.23-2.38l-1.4,0.43l-0.35,0.43v0.43l0.35,0.22l1.05,2.17l-0.52,0.43l-0.17,1.3l-0.7,0.22l-0.7,1.08
		h-0.53l-0.35-0.65l-1.75,1.08l1.23-0.22l-0.7,1.73l0.88,1.08l-0.53,0.43l-1.05-0.22v0.65l0.35,0.65v1.3l-1.05,0.65l-0.88-0.87h-0.7
		l-0.52,0.43v0.65l1.05,0.87l1.4,0.65l1.93-2.17l1.75-0.43l0.17-0.87l-0.52-0.87l-0.88,0.22l-0.17-1.08l1.57-0.43l0.7-1.73
		l-0.35-0.87l2.45-1.3l-0.18-0.43h-0.17L158.04,160.32z M153.49,186.55l-0.18-0.43l1.23-2.82l2.8-1.73l0.52-1.08l-0.88-1.3
		l-0.88,1.3h-0.7v-0.43l-0.17-0.22l0.17-1.52l1.75-0.87l1.23-5.42l1.75,1.3l-0.88,0.87l-0.17,0.65l0.17,0.22v0.87h0.52l0.7,1.3
		l-0.7,0.65l-0.7-0.22l0.17,3.25l-0.88,1.3l0.18,0.65l0.7-0.87h0.18l0.17,0.22l1.05,0.22l0.17-1.3l-0.35-0.22l1.75-0.87l1.93,2.82
		l-0.88,0.22l-0.18,1.3l1.05-0.65v-0.22l1.23-0.43l0.7,0.43l0.88-0.22l0.18-0.87l-0.18-0.43l0.52-1.73l-0.7,0.43l-0.7-0.43
		l-0.35-0.87l-0.88-0.65l0.88,3.04l-1.05-0.22l-1.58-4.34l0.52-1.08h-1.05l-0.35-0.43v-0.43l0.52-0.65v-0.65h-0.52l-0.17-0.65
		l0.52-1.08h0.35l0.88,1.08l-0.52-2.38h-1.05l-0.35-0.43h-0.7l-0.18-0.65l1.05-0.65l0.52-1.3l-0.52-0.43v-0.43l-0.35-0.43
		l-0.35,0.43l0.18,1.08l-0.53,1.08l-1.57-0.43l-1.58,0.65l0.17,1.73l-0.35,0.43l-1.58,0.43v0.22h-0.17l-1.58-1.95l-0.17,0.43
		l0.17,0.87h-0.52l-0.35,0.43l2.45,3.69l-0.35,0.87l-3.33-2.82l-2.8,6.07l0.17,1.52l0.52,0.65l0.18-0.22l-0.18-0.22v-0.22l2.27-1.52
		l0.35,1.3l-0.7,0.22l-0.7,1.95l0.35,1.08l0.7,0.43v0.43h0.18l0.17,1.08l0.52,0.43L153.49,186.55z M151.92,152.29l0.7-0.43l1.58,1.3
		h1.4l-0.52-1.73l-0.7,1.08l-3.5-1.73l0.52,0.87l0.17,1.73l1.05,0.43L151.92,152.29z M151.22,162.92l-0.18,1.52l0.35,0.22l0.52-0.65
		v-1.08H151.22z M152.62,160.97l-0.18-0.22v-0.22h-0.7l-0.52,0.65L152.62,160.97z M152.62,157.5l-0.18-1.08l-0.88-0.22l0.18,0.87
		l0.52,0.65L152.62,157.5z M153.67,183.29l-1.23-0.87h0.35l0.18-0.22h0.17l0.17,0.22h0.18l0.17,0.22V183.29z M154.19,167.25h0.17
		v0.22l-0.7,1.08v-0.43l-0.88-1.08l0.35-0.22l0.17-0.22L154.19,167.25z M154.54,181.99h-0.52v-1.3h0.7L154.54,181.99z
		 M154.89,185.68l-0.17-0.22l-0.18-0.43l-0.35,0.22l0.17,0.43l0.52,0.22V185.68z M155.42,185.46l1.23,0.65l0.52,0.65l-0.7,1.95
		l0.35,0.43l-0.18,0.65h0.7l0.35-0.43l0.7,0.22l1.4-1.08l0.53,0.22l0.35-0.22v-0.43l-0.35-0.22l-1.4,0.65l-0.88-0.43l-0.52-0.87
		l1.58-0.87l1.58,0.43l-0.35-1.52l-1.23-0.87l-0.7,0.65l-3.15-0.43L155.42,185.46z M157.52,195l-0.35-1.08l-0.7-0.87v-0.87
		l-0.7-0.65l0.18,1.52l0.35,0.22v1.3L157.52,195z M158.57,197.17l-1.58,0.87l1.05-0.22L158.57,197.17z M157.34,164.22l-0.18,1.08
		l0.18,1.08l0.17-0.22h0.35v-1.08L157.34,164.22z M158.92,154.9h0.18l0.17-0.43l-0.52-0.65l-0.17,0.43L158.92,154.9z M158.92,163.13
		l0.53,1.08h0.52l0.17-0.65l-0.52-1.08l-0.52,0.22L158.92,163.13z M159.09,191.31l0.17,0.22h0.18l0.17-0.87l-0.17-0.22h-0.35V191.31
		z M160.49,198.68l0.52-0.43h-1.23l-0.52,1.52l0.35,1.52l0.7,0.43l0.35-0.65L160.49,198.68z M160.32,156.63l-0.18-0.43h-0.35
		l-0.17,0.22v0.43l0.35,0.22L160.32,156.63z M161.19,161.18h-0.52l0.35,0.65h0.7L161.19,161.18z M161.02,193.92l1.75,2.17h0.53V195
		l-0.35-0.22v-0.65l1.05-0.87l-0.35-0.43l-2.1-0.43l-0.53,0.43V193.92z M162.24,199.99l-0.35-0.43l-0.52,0.22v0.43l0.35,0.22
		L162.24,199.99z M161.89,163.78l0.35,1.73l0.18,0.43h0.35l-0.35-2.17H161.89z M172.92,210.39v-0.43l0.17-0.22l0.7-1.08l-1.05-2.38
		l0.17-0.65l-0.35-0.65l0.18-0.65l-0.53-1.73l-3.32-2.82l-0.53,0.43h-0.17v0.22l-0.7-0.65l-0.17-4.77l0.7-0.43l0.52,0.22l0.35-0.22
		v-0.43l-1.05-0.22l-0.88,0.43l-0.52-1.08l0.52-0.65l1.4-0.22l-0.17-0.87l-1.75-0.43v-0.43l0.52-0.87l-0.17-1.08l0.52-1.3
		l-0.35-1.08l-1.92-1.08l-0.35,0.65v0.43l1.05,0.43l0.18,0.87l-0.18,0.22l-0.52-0.22l-1.4,0.87l-1.05-0.43v-0.43l-0.88-1.3
		l0.35,2.38h0.7l0.35,1.08l-0.18,1.08l-0.35,0.43l0.88,0.43l1.23-1.08l1.4,0.65l-0.53,3.04h-0.88l-0.88,2.38l0.18,0.65h1.23
		l-0.35,2.17l0.7,0.87v0.87l0.53,0.43l0.52-1.08h0.7l0.35,0.43l0.18,0.87l-0.18,0.65l0.35,1.08l1.05,0.22l0.35,0.43l-0.7,0.87
		l-0.18,0.87l0.35,0.65l3.15,0.22l0.88,1.52l-0.17,0.65l-2.98,0.65l0.35,2.6l-0.88,1.73h0.7l0.18-0.65l0.7,1.73l0.88,0.22l0.35-0.22
		v-0.65l-0.17-0.22l-0.52,0.22l-0.35-0.87l0.17-1.52l-0.35-0.65l1.4-0.65l0.88,0.87v-0.65L172.92,210.39z M163.64,201.07l-0.7-0.22
		l-0.52,0.22v0.43l0.52,0.22L163.64,201.07z M163.47,185.68h-0.35v0.65h0.52v-0.43L163.47,185.68z M164.17,200.42l0.35-0.43v-0.22
		l-0.88,0.65H164.17z M165.22,211.47l-0.52-0.87l-0.35-0.43h-0.17l-0.18,0.65l0.52,1.08l0.35,0.22L165.22,211.47z M164.87,172.89
		l0.7-0.43l0.17-0.65v-0.22h-0.17l-0.52,0.43L164.87,172.89z M165.39,144.49l0.52,0.43l1.23-1.52l-0.35-1.3l-0.35,1.52l-0.7,0.22
		L165.39,144.49z M165.92,175.27l-0.52,0.22l0.17,0.22l0.52-0.22v-0.22H165.92z M165.57,195.22l0.88,1.08h-0.35L165.57,195.22z
		 M167.67,206.92l-0.35-0.65l-0.17,0.87l0.52,1.08V206.92z M167.32,151.21l0.35,0.87l0.88,0.22l0.88-1.73l-0.88-0.22l-0.18,0.22
		h-0.35L167.32,151.21z M168.02,173.54l-0.53,1.73l-0.17,0.43l0.17,0.22h0.35l0.88-3.9l-1.4-0.22L168.02,173.54z M168.02,179.17
		l0.35-0.22l0.18-0.22l-0.35-0.43h-0.35l-0.17,0.22L168.02,179.17z M169.59,184.81l-0.52-0.65h-0.52l-0.88,1.3l0.35,0.43h0.88
		l0.52-0.43L169.59,184.81z M169.07,187.41l-0.7-0.43l-0.35,3.04h0.7l0.88-1.3L169.07,187.41z M168.72,211.04h-0.35l-0.17,0.22v0.43
		l0.17,0.22l0.35-0.43V211.04z M168.72,197.6l-0.17,0.43l0.17,0.22h1.05l-1.23-2.6L168.72,197.6z M170.47,197.82h0.35l1.58-1.08
		l-0.18-1.52l-1.05-0.43l-0.7,1.3V197.82z M171.34,135.82l0.35,1.3l1.75,0.87l1.4-1.52l-2.8-1.3L171.34,135.82z M172.22,101.35
		l0.53,0.87l0.17-1.08l-0.17-1.08l-0.53,0.22V101.35z M172.22,193.05l0.53,0.22l0.35-0.43h0.18l0.52-0.43l0.17-0.87v-0.22
		l-0.17-0.22l-0.52,0.22l-0.35,1.08h-0.7V193.05z M173.09,218.63l-0.52-0.22l0.35-1.95l-0.7,0.87l0.53,1.95L173.09,218.63z
		 M173.09,199.99l-0.52,0.22l-0.17,0.65l0.17,0.22l0.88-0.65L173.09,199.99z M173.79,195.43l-0.17-0.43l-0.7-0.22v0.65l0.35,0.43
		L173.79,195.43z M173.97,198.03l0.53,0.22l-0.18-0.65l-0.52-0.65L173.97,198.03z M177.82,220.36l-2.8-1.3l-0.7,0.43l-0.17,1.08
		l0.35,0.43L177.82,220.36z M174.32,128.23l0.52,0.43l0.7-0.22l0.52-1.08v-0.22l0.7-0.87l-0.52-0.87v0.22h-0.53v0.87l-0.35,0.22
		l-0.18,0.43l-0.7,0.22L174.32,128.23z M174.67,209.74l-0.35,1.08l0.52,0.22l0.53-0.22l0.17-0.87l-0.35-0.43L174.67,209.74z
		 M174.49,194.13l0.35,0.43l0.35,1.95l0.88-1.3l-0.35-1.3v-0.22l-0.88-0.22L174.49,194.13z M177.29,210.82l-1.4,1.52h-0.18
		l-0.7,0.65l-0.18,0.65h1.4l-0.18-1.08l1.05-0.43L177.29,210.82z M175.54,204.32h0.35v-1.08l-0.88-0.22v0.87L175.54,204.32z
		 M175.37,217.76h-0.18l-0.17,0.65l0.17,0.65l0.35-0.43v-0.65L175.37,217.76z M176.59,222.31h-0.53v0.43l0.35,0.22l0.18-0.22V222.31
		z M176.59,199.12l0.7,0.87v0.65l0.7-0.87l-1.23-1.52L176.59,199.12z M177.47,201.94v-0.65l-0.18-0.22l-0.35,0.43l0.18,0.43H177.47z
		 M177.12,213.64l-0.18,1.3h0.18l0.17-0.22L177.12,213.64z M178.34,216.68l-0.7-0.65h-0.35l-0.17,0.22l1.23,2.17V216.68z
		 M178.87,203.24l-0.52-0.43l-0.53-0.22l0.53,1.95l0.52-0.43V203.24z M178.17,110.67l0.52,0.87l0.88-0.22l1.05,0.87v-1.08l-0.7-1.95
		l-0.52-0.22l-0.88,0.65L178.17,110.67z M180.09,136.25l-0.18-1.3l-1.4,0.22l0.52,1.3l0.52,0.22L180.09,136.25z M180.44,124.76
		l-0.17-0.22h-0.7l-0.17,0.22h-0.17v0.22h1.22V124.76z M180.27,203.02l-0.7,0.65l0.53-0.22L180.27,203.02z M184.29,113.27l0.35,0.87
		l4.2,1.3v-0.43l0.17-0.22l-1.05-1.08l-1.4-0.22l-0.53,0.22l-0.7-1.3l-0.88,0.22L184.29,113.27z M185.69,143.62l-0.53,0.65v0.87
		L185.69,143.62z M185.87,206.27l-0.35-0.65h-0.17l-0.18,0.22l0.18,0.87L185.87,206.27z M188.32,135.17l-0.35-3.25v-0.65l-0.35-0.22
		l-0.52,0.43v0.87l-0.7,1.3h-0.17l-0.52,0.43l0.17,1.08l0.52,0.65h1.58l0.17-0.65H188.32z M186.04,108.72l0.35,0.87h0.18l0.17-0.87
		l-0.17-0.43h-0.35L186.04,108.72z M189.54,125.63l0.17,0.65h0.35l0.35-0.65l-0.18-0.43h-0.52L189.54,125.63z"/>
	<path  fill="black" d="M271.26,69.49l10.68-0.22h2.8l10.5,0.87h2.8l10.5-0.87h2.8l23.8,0.43l2.98-0.22l5.95-0.65h4.38l2.45,0.65l1.05,1.08
		l0.35,1.52l0.35,2.82v5.85l-0.35,5.42v3.69l0.18,5.42l0.17,3.25l-0.17,3.25l-0.35,2.6l-0.7,1.52l-0.88,0.87l-2.1,0.43h-1.4
		l-2.8,0.22l-16.45-0.43h-2.8l-8.93,0.43h-2.8l-9.1-0.43l-7.88-0.65h-2.62l-1.4,0.22l-1.75,0.43l-0.88,1.08l-0.18,1.3l-0.35,2.38
		l-0.35,5.2v3.47l0.17,3.69l0.17,2.38l0.35,1.52l0.7,1.08l1.93,0.65l5.6,0.43l5.6-0.43h16.62l19.6-1.3l5.42,0.43l1.92,0.43
		l1.05,1.08l0.53,1.3l0.17,2.38l0.35,3.69l0.17,3.69v7.15l0.35,4.99l-0.35,6.5l-0.35,2.6l-0.7,1.52l-1.23,1.08l-1.75,0.43h-3.5
		l-7.88-1.08l-2.8-0.22l-14,1.08l-11.2-0.43h-2.8l-7-0.65l-2.97,0.22l-2.1,0.22l-0.88,0.65l-0.53,1.52l-0.17,3.25l-0.52,5.42
		l-0.18,3.47v4.77l0.18,2.17l0.52,1.52l0.7,0.87l1.92,0.22l9.62,0.43h2.8l9.45-0.87l12.42,0.87h2.8l12.43-0.87h2.62l2.62,0.22
		l6.3,0.87l1.05,0.65l0.7,1.3l0.17,2.38l0.53,11.92l-0.17,3.47l-0.7,11.71l-0.17,2.17l-0.7,1.52l-0.88,0.87l-22.93,0.87h-2.8
		l-9.28-0.87l-2.8,0.22l-9.1,0.87l-2.8,0.22h-12.08l-9.1-0.87h-2.8l-15.05,1.08l-5.95-0.43l-2.1-0.43l-1.23-1.08l-0.52-1.52
		l-0.35-2.38l-0.35-4.99l-0.17-3.47l0.17-3.25v-3.25l0.7-11.49v-3.47l0.17-11.49l-0.17-3.47l-0.53-11.49l-0.17-3.47l0.35-11.71
		v-18.43l0.7-11.49l-0.17-3.47l-0.53-11.49l-0.17-3.47v-5.2l0.35-6.5v-3.25l0.53-11.27l0.17-3.04l0.53-1.73l0.88-0.87l1.4-0.22
		l2.27-0.43L271.26,69.49z M260.94,211.04l-0.7-0.43l-0.35,0.43v0.87l0.53,0.87l2.1-1.52l-0.7-0.65L260.94,211.04z M265.49,83.14
		l-5.25,1.3l1.22,0.43l1.4,1.73l1.4-0.43l-1.92-1.08v-0.43l5.08-2.17l-1.92-1.52V83.14z M270.91,96.8l-0.53,0.65l0.18,0.22v0.43
		l-1.58,1.3l2.27,3.9h-0.17v0.22h-0.17l-0.53,0.43l-0.17-0.22h-0.17l-3.15-2.38l-4.72,3.25v0.22h-0.17l-0.7,0.87v3.03l0.17,0.22
		l0.35-0.22v-0.22l-0.17-0.22l3.67-1.08v1.73h-0.88l-1.75,2.6l1.58,5.2h0.53v-0.65l0.7-1.3l1.05,3.9l-2.28,3.25l1.58,0.43l0.53,0.87
		h2.45l0.35,0.65l0.53,0.22l0.17-0.65l-0.17-0.43l-2.1-0.65l-0.88-3.04l2.45,0.43l1.75,2.17l0.35-2.17l-5.42-5.42l0.35-0.87
		l0.88-0.65l1.23,0.22v0.22l4.2-2.6l-0.17-1.52l-0.7-0.65l-1.58,1.08l-0.7-0.22l-0.17-1.08l0.53-0.65l0.17-1.08l2.45-0.43l3.15-7.15
		l-0.52-1.08l-2.28,0.65l-0.35,0.43l-1.23-2.17H270.91z M261.99,81.19l0.88,0.87h1.05l0.17-0.22v-0.43l-0.88-0.65L261.99,81.19z
		 M262.69,203.89l-0.17,0.22l0.17,0.43h0.7l0.17-0.22l-0.52-0.43H262.69z M263.04,127.8l0.17,0.22l-0.53,1.73l1.05,1.73l0.17-1.73
		l-0.17-4.12L263.04,127.8z M262.86,137.55l0.52,0.43l0.35-0.43l-0.18-0.65l-0.88-0.22L262.86,137.55z M265.31,90.51l-1.92,0.43
		l-0.17,1.08l0.53,1.52l1.05,0.65l0.17-0.43l0.35-0.22l0.18-3.04H265.31z M263.21,139.72l0.35,0.65h1.05l-0.53-0.87l-0.88-0.43
		V139.72z M265.49,147.74l-2.1,1.95v0.65l0.53,0.22l0.35-0.22l2.98-3.69l-1.58-1.52L265.49,147.74z M263.39,213.86l0.53,0.65
		l0.88-0.22l-1.4-1.08V213.86z M270.74,124.55l0.7,0.43l-1.23,2.82l-0.52,0.22l0.7,1.3l2.28-0.22l0.35,1.3l0.88,0.65l-2.45,3.25
		l-1.05-0.65l-2.8,2.6l1.58,1.3l-1.75,2.38l0.35,1.52l-0.52,1.08l0.35,1.08l1.22-0.65l0.7,0.43l0.35,1.08l-1.05,3.25l1.05,0.65v1.52
		l-1.4,0.22l-0.7,1.08l0.17,0.87l2.45,1.52l0.35,1.08l0.88,0.65v2.6l-0.7,0.65h-1.58l-2.28-1.95l-1.92,4.12l-1.4,0.43l0.7,0.65
		l0.88-0.65l-0.35,2.82l0.88,1.3l0.7-0.22l0.35-0.65l-0.17-0.65h-0.53l1.23-4.12h0.7l0.52,0.43h0.53l0.7,1.95l0.35-1.95l2.1-1.3
		l0.17-3.69l0.7-0.65v-1.08l0.52-0.65l0.35-2.6l-2.28-6.5l-1.22,0.22l-0.53-1.52l0.53-1.52l-0.53-0.87l2.62-2.38l0.17-0.87
		l1.23,0.22l0.35,0.65h0.7l0.17-0.22l-0.35-1.08l-2.1-0.65v-1.95l1.23-0.22l1.57,0.87l0.53-1.08l-1.22-0.65l-0.7-1.73l1.22-0.65
		l0.53-1.52l1.58-1.3l-0.18-3.04l-0.52-0.22l-0.88-1.3l-0.7,0.22l-0.17,0.65l0.88,1.52l-0.17,1.08l-0.18,0.22h-0.17l-0.7-0.87
		l-2.1-0.22l-0.88-1.3v-2.82L270.74,124.55z M271.44,92.46l-0.88-0.22l-0.18-0.43h-0.35l-0.53,0.43v0.65l-0.52,0.87v0.43l-1.23,1.3
		h-0.88l-0.52,0.43l-2.28,3.04v0.22l-0.17,0.22v0.43h0.17v0.43l0.7-0.22v-0.22l1.22-1.08l-1.05,1.52l2.45-2.38l-0.17-0.22h-0.35
		l0.17-0.65l4.9-3.47l0.7,0.22l0.17,2.6l-0.35,0.65h0.17l0.17,0.22l1.4-0.43l1.05-1.73V91.6l-0.88-0.43L271.44,92.46z
		 M264.26,156.63l-0.17,0.22l-0.17,0.87l0.7-0.22v-0.87H264.26z M264.26,197.82l0.17,0.22h0.18l0.17,0.22v-0.22h-0.17l-0.18-0.22
		H264.26z M267.76,204.54l-1.22,0.43l-0.88,1.73l-1.05,0.22l-0.35,0.43l0.53,0.87h0.52l2.62-3.25v-0.43H267.76z M265.66,110.89
		l0.52,1.08l-0.35,0.43l-1.22-1.73h0.88L265.66,110.89z M265.14,167.9l-0.52,2.6l0.7-0.22v-0.43l-0.35-0.43l1.58-1.95L265.14,167.9z
		 M265.14,86.18l-0.35,1.08l1.05-0.43l0.53-0.87l-0.53-0.43L265.14,86.18z M265.49,123.9l-0.18,0.87l0.18,0.22l0.7-0.22l0.18-1.08
		l-0.35-0.22L265.49,123.9z M265.84,139.29l-0.53,0.43l0.53,0.43l0.7-0.22l0.17-0.22l-0.17-0.43H265.84z M266.36,172.45l-0.88,0.87
		l0.17,1.08l2.45,1.3l1.75,0.87l-2.28-4.12H266.36z M266.01,89.21l0.35,1.95l0.7,0.22l0.35-1.3l-0.53-1.52L266.01,89.21z
		 M268.29,109.37l-0.88,1.73l-0.7-0.22l-0.17-0.87l0.17,0.22v-0.22l0.53-0.87L268.29,109.37z M266.54,128.02l0.17,5.42l0.7,0.65
		l0.7-1.3l-0.18-0.43l0.18-1.08l0.88-0.22l0.52,0.43h0.53v-0.65l-0.35-0.22l-0.35-1.52l-1.75-1.08H266.54z M266.71,177.44
		l-0.17,0.22l0.17,0.65h0.35l0.35-0.43l-0.35-0.43H266.71z M266.89,217.33l-0.17,0.43l0.88,0.87l0.88-0.87l-0.88-0.65L266.89,217.33
		z M267.76,171.59v0.87l0.7-0.22l0.17-0.87l-0.17-0.22L267.76,171.59z M267.94,124.76v0.65l0.35,0.65l0.17-0.65v-0.65H267.94z
		 M268.46,199.55l0.35,0.43v-0.22l-0.35-0.43V199.55z M269.34,80.76l0.88,1.52v0.87l0.7,0.87l-0.88,4.12l0.53,1.3l3.15,1.52
		l1.05-0.43l0.53-1.08l-2.8-1.73v-1.95l4.38-0.65l-0.35-1.08l-1.22-0.65l0.17-0.22l-1.4-1.08h-0.88l-0.88-1.73l-2.1-0.65
		L269.34,80.76z M282.64,93.55l-0.53,4.34l-1.22,0.22l-1.58-2.6h-2.28l-0.7,5.2l1.23,3.25l-1.58,0.22l-1.23,1.95l0.7,0.65v2.17
		h-1.22l-0.7-0.65l-1.75,3.9l-1.58,0.65l-0.35,1.3l1.22-0.65l1.58,1.95l0.88-1.52l-0.53-1.08h0.18l0.17-0.22h0.7v0.22h-0.18
		l0.53,0.87l1.58,0.22l0.52,4.99l-2.1-1.52l-0.17,2.6l1.58,0.22l0.35-0.43l1.58,0.65l0.7,1.3l1.22,0.43l0.53-0.65l0.17-1.08v0.22
		l1.75-1.52l-1.22-0.22l-0.53-1.08l0.17-1.52l-0.52-1.3l-0.88,4.34h-1.4l1.05-7.8l1.23-0.65l-1.4-1.3l-0.17-1.08l1.4-0.65l0.35-0.65
		l-0.7-0.65l0.17-0.87l1.75-0.65l0.35,2.38l0.52-0.65l0.35-2.82l-2.1-3.25l0.17-1.3l0.7-0.22l0.88,0.43l1.23-2.17l-0.18-4.55
		L282.64,93.55z M269.86,205.62l0.35,2.6l0.53,0.22v-0.22l0.17-0.22l1.4,0.22l-0.53-1.08l-1.05-1.3h-0.17l-0.53-0.43L269.86,205.62z
		 M270.39,116.74l2.28,1.52l1.05-0.87l-1.22-0.43l-0.88-0.43l-0.7-1.3L270.39,116.74z M272.66,165.08h-1.58l-0.7,0.65l1.75,1.3
		l0.53-1.52l1.4,0.65l1.05-1.52L272.66,165.08z M270.91,136.04l0.17,1.08h-0.35l-0.17-1.95L270.91,136.04z M272.49,147.09
		l-0.35,0.65v0.43h-0.52l-0.53-0.22v-0.43h0.17l0.35-0.65L272.49,147.09z M274.59,83.58v1.08l-3.15-0.65l0.7-1.73L274.59,83.58z
		 M272.66,161.18l-1.05,0.65l1.22,1.08l0.88-0.87l-0.35-0.87H272.66z M271.61,170.94l0.17,3.69l1.05-1.73l-0.88-1.95H271.61z
		 M272.66,150.34l0.35,0.65l-0.7,1.08v-0.22l-0.35-0.22v-0.65l0.17-0.22v-0.65l0.53-0.43V150.34z M272.49,168.55l-0.17,0.87h0.52
		l0.35-0.65v-0.87L272.49,168.55z M273.01,141.02l-0.52,0.22l0.7,1.08l0.52,0.22l0.35-0.22v-3.9L273.01,141.02z M273.19,121.73v0.43
		l0.52,0.65l0.35-0.65l-0.18-0.43H273.19z M283.34,89.43h-0.88l0.18-1.3l-0.18-0.43h-0.17l-0.35,0.43L281.76,89l0.17,0.22
		l-2.28-1.08v-0.22h-0.7l-0.7-1.52l-0.7,0.43l-0.18-0.22l-1.4-0.43h-0.88l-0.53,0.65l1.4,1.3h1.05l1.4,1.3l0.52-0.65l-0.35,3.04
		l0.88-0.65l0.35-2.17l-0.17,2.17l1.23,1.3l0.7-0.22V91.6l-0.52-1.08l2.97-0.65l0.35-0.87l0.35-0.22l-0.17,3.47l0.52,0.22l0.53-3.9
		h0.35l-0.88-3.68L283.34,89.43z M274.94,142.54v0.43l2.97,0.22l0.53-0.87v-1.08l-0.88-1.52L274.94,142.54z M275.29,157.71v1.95
		l0.35,0.43l0.88-0.43l-0.35-2.17l-0.35-0.22L275.29,157.71z M275.46,148.39v0.43h1.4v-1.08l-0.88-0.22L275.46,148.39z
		 M275.81,205.84l-0.18,0.43l0.53,1.52h0.7l0.35-0.65l-0.35-0.87l-0.53-0.43H275.81z M276.51,154.25l1.05,1.3l0.52-1.08l-0.35-0.87
		l-0.53-0.22L276.51,154.25z M278.09,128.67l-1.22,2.6l0.88,0.65l1.58-0.65l0.17-2.17l-0.53-1.3L278.09,128.67z M277.39,136.04
		l-0.17,1.3l0.53,0.87h0.7l1.4-3.25l0.7-0.22l-2.8-0.87L277.39,136.04z M277.91,206.49l-0.53,0.43l0.53,0.87l1.58,0.22v-0.43
		l-0.17-0.22h-0.53l-0.35-0.87H277.91z M277.74,83.36l0.35,0.65l0.88,0.22l0.7,0.22l0.17-0.43l-0.17-0.43l-1.4-0.43L277.74,83.36z
		 M278.26,186.11v1.73l0.7-0.22l0.35-0.43l0.17-0.87l-0.53-0.65L278.26,186.11z M279.14,125.41l0.18,0.87l1.92,1.08l0.53-0.87
		l-0.18-1.3l-1.57-0.43L279.14,125.41z M279.31,142.32l0.17,0.65l0.53,0.22l0.35-0.22v-0.43l-0.7-1.08L279.31,142.32z
		 M279.31,217.54l0.17,0.43l0.35,0.22l0.35-0.22l-0.35-1.3L279.31,217.54z M280.71,199.77l-0.52,0.87h-0.17l-0.53,3.04l0.88-0.65
		l1.75,0.43l0.17-1.95l-0.17-0.43l0.35-0.87l-0.88-0.65L280.71,199.77z M281.59,138.42h-0.35l-0.17,0.22l-0.7-0.43l-0.53,0.65
		l0.53,0.65l0.88-0.22l0.17,0.22h0.88l0.7-0.87v-0.65l-0.7-0.22L281.59,138.42z M280.01,161.83l-0.18,0.65l0.53,0.87l0.53-0.87
		l-0.35-0.87L280.01,161.83z M280.71,156.63l-0.52,0.87l0.17,0.65l0.88,0.22l0.35-1.3l-0.88-1.52V156.63z M280.36,153.38v0.43
		l0.17,0.22l0.17,0.43l0.35-0.43v-0.87L280.36,153.38z M281.41,150.13l0.88,1.08l-1.05,1.3l1.58-0.43l-0.7-3.03L281.41,150.13z
		 M281.94,142.11l-0.53,3.69l1.75-0.65l0.53-2.17l-0.17-0.22v-0.22l-0.7-0.87L281.94,142.11z M282.29,214.94l-0.17,0.87l0.17,0.22
		l-0.52,0.87v3.9h-0.18v0.43l-0.17,0.22l1.23,0.65l-0.18-3.04l0.53-1.08l-0.17-0.43l0.52-0.43l-0.17-2.38L282.29,214.94z
		 M282.11,208.87l0.7,0.65l0.35-0.22l0.17-0.43l-1.05-0.43L282.11,208.87z M282.46,111.97l0.88,0.22v-0.43l-0.88-0.22V111.97z
		 M282.99,190.23l-0.35,1.73l0.7,0.65l-0.17-1.3l0.35-0.65v-0.43H282.99z M283.34,117.39l-0.17,0.43l0.17,0.43l0.53,0.22l0.35-0.22
		l-0.17-0.87l-0.35-0.22L283.34,117.39z M284.04,106.99l-0.7,0.87l1.05,0.22l0.7-0.65l-0.17-0.65L284.04,106.99z M284.39,96.58v0.43
		l1.4,0.65l0.7-0.87h-0.53l-0.52,0.22l-0.53-0.65L284.39,96.58z M286.31,81.41l-0.53-0.43l-0.52,0.65l0.35,0.65l0.7-0.22h0.17
		l0.17,0.22h0.7l0.7-0.65v-0.65l-0.7-0.22L286.31,81.41z M286.66,206.92l-0.88,0.22l-0.35,0.65l0.52,0.87l0.7,0.22l0.53-0.43
		l0.17-0.65l-0.17-0.87H286.66z M285.79,154.68l0.17,0.87l0.18,0.22l0.35-0.87l-0.35-0.43L285.79,154.68z M287.54,102l1.23,0.43
		l-0.7-1.08l-0.7-0.65l0.35-0.43v-0.43l-0.7-0.22L287.54,102z M287.89,83.58l-0.35,0.43l0.35,0.65l0.52,0.22l0.53-0.22l0.17-0.65
		l-0.17-0.43l-0.35-0.22L287.89,83.58z M287.54,205.4l0.17,0.65l0.35,0.22l0.35-0.22v-0.43l-0.35-0.65L287.54,205.4z M288.59,211.04
		v0.65l1.75,0.65l0.7-1.08l-1.4,0.43l-0.53-0.65H288.59z M289.64,95.72h0.7l0.88,0.43l0.53,0.87l0.17-1.73l-2.45-0.22L289.64,95.72z
		 M289.99,98.75l0.35,0.43l0.35-0.22v-0.22l-0.35-0.65l-0.52-0.22L289.99,98.75z M289.99,203.89l0.7,0.65l-0.17,2.38l8.05,0.87
		l1.4-1.3h-1.58l-4.38,0.43l-0.7-1.08v-1.08l0.88-0.43l0.17-1.3l-0.52-0.87l-3.85-0.22V203.89z M290.86,91.81l0.17,0.65l0.17-0.43
		l0.35-0.65l-0.53-0.22L290.86,91.81z M291.74,199.12l0.35,0.87h1.92l-1.75-1.73L291.74,199.12z M292.44,217.54l1.58,0.43
		l-1.75-1.95l0.35-1.08l-0.88-0.22L292.44,217.54z M292.09,77.94l0.52,0.43l-0.17,1.95l6.83,1.08l1.05-1.08h-4.9l-0.52-0.65v-1.08
		l0.7-0.43l0.17-0.87l-0.35-0.65l-3.15-0.43L292.09,77.94z M292.96,89.43l0.17,0.87l0.17,0.22l0.35-0.22l0.18-0.43l-0.35-0.65
		L292.96,89.43z M293.14,97.67v1.52l0.35,0.22l0.88-1.73l-0.88-1.73L293.14,97.67z M293.31,84.01l0.53,0.65l0.7,0.22l0.35,2.6
		l0.35,0.43l-0.35,2.82l-0.17,0.43l0.17,0.65l0.35,0.22l2.62-5.42l-0.17-1.3h-1.22l0.17,0.65l0.52,0.22v0.22l-1.4-0.65v-0.22
		l-0.53-0.87l0.17-0.87l0.18-0.22v-0.43L293.31,84.01z M294.01,100.49l-0.17,0.22l0.17,0.65l0.7,0.65v-0.87l-0.35-0.65H294.01z
		 M294.54,209.09l0.18,0.87l1.92,0.43l0.7,0.87l0.17-1.95l-2.28-0.65L294.54,209.09z M295.06,212.56l0.17,0.87l0.88,0.43l-0.35-1.3
		H295.06z M296.11,204.97l0.35,0.87l0.52-1.3l-0.52-0.22L296.11,204.97z M296.46,198.9l-0.18,0.87l0.53,0.87l1.22-0.22l0.88-1.08
		l-1.22-0.65L296.46,198.9z M296.99,75.12l-0.35,0.65v1.3l0.52,0.43l0.7-0.43l1.58-0.22l-1.05-2.17l0.52-0.43l-2.1-0.43
		L296.99,75.12z M298.04,84.66l1.58,0.87l1.23-0.43l-0.18-1.3l-1.22-0.22L298.04,84.66z M298.74,202.15l-0.17,0.65l0.53,0.65
		l0.52-0.22v-1.08l-0.35-0.22L298.74,202.15z M299.79,196.73l-0.88,0.43l0.7,0.87l0.7,0.22l0.53,3.25l0.52,0.43l-0.35,4.55
		l0.52,0.22l2.1-5.85l0.88-0.65l-0.17-1.52h-1.75l0.88,1.08h0.17v0.22l-1.4-0.43v-0.43h-0.35v-0.22l-0.53-1.08v-0.87l0.35-0.43
		l-0.18-0.43L299.79,196.73z M299.26,213.86l0.35,0.22l1.05-2.17l-1.22-1.95L299.26,213.86z M299.96,97.45l0.17,1.08h0.35l0.17-0.22
		l0.18-0.87l-0.7-1.3L299.96,97.45z M323.06,196.52l-1.92,4.12l-1.75-0.22l-2.27-3.04l-1.05,0.65l-0.17,1.95l0.35,0.65l-0.53,2.82
		l-2.62-4.12l-0.7,0.43l-1.58-0.43l-0.52,1.95l-0.53,0.43l-1.05-0.43l-1.05,0.43l0.52,1.73h1.92l-0.17,1.73l-1.05,0.87l-1.4-0.87
		l0.35,1.52l1.05,0.43l-0.53,1.52l-1.22,0.22l-0.88-1.73v-1.08l-1.75-1.52l-1.05,2.17l0.17,0.87l-1.75,1.3l-0.7-1.08l-1.05,0.22
		l0.7,1.08l1.05,0.43l1.75-1.08l0.53,0.22l0.35-1.95h0.88l0.35,1.08l0.88,0.43l-1.4,0.43l-1.4,1.95v0.65l0.53,0.43l0.88-1.08h0.52
		l0.18,1.3h0.88l0.35-0.87l0.7,0.65l-1.05,1.73l-0.35-0.43l-1.75,0.65l-1.75-1.08l-1.4,0.22l1.58,1.08l-0.17,2.38l1.58,1.3h0.88
		l0.53,0.43l-0.35,0.22v0.43l0.35,0.65l3.15-1.73l-0.52-2.17l1.05-1.73l0.17-2.17h0.35v-1.08h0.53l0.35-0.43l3.85-0.22l0.53-0.87
		l-0.7-0.65h-0.88l-0.18-0.87l0.53-0.87l0.88,0.43l0.88-0.87v-1.52l2.62-1.3l0.53,0.65h0.7l0.52,0.87l1.23,0.22l0.35,0.87
		l-1.58,1.52l0.7,0.43l-0.17,1.08l-3.67,1.95l3.15,1.08l0.35,2.6l-0.7,1.95l1.22,1.52v0.65l1.23,0.65l0.52-0.87l-1.75-8.02
		l1.23-2.17l2.62-1.08l0.52-1.3l-0.7-1.08l-1.05-0.43l1.4-4.12l-1.92-0.65v-3.03H323.06z M300.14,215.59l0.17,0.87l0.7,0.65v-0.87
		l-0.35-0.65H300.14z M302.59,76.42l-0.17,0.87l0.35,0.87l0.7,0.22l0.17-0.65l-0.17-0.65l0.17-0.65l-0.17-0.22L302.59,76.42z
		 M302.59,84.01l0.52,0.87l0.18-1.95L302.59,84.01z M303.81,202.15l1.92,0.87l1.4-0.65l-0.17-1.52l-1.4-0.22L303.81,202.15z
		 M304.86,98.1v0.43l0.35,0.43h0.7l-0.18-0.87H304.86z M308.54,94.2l-2.8-1.52l0.53,1.52l-0.53,1.95l0.18,0.43h0.52l0.7-1.52
		l1.75,0.87l1.22-1.95v-1.52L308.54,94.2z M307.14,77.94l-0.17,0.65l0.35,0.87l1.23,0.65l1.22-0.87l-1.92-1.73L307.14,77.94z
		 M306.96,199.55l0.88,0.87l0.17-1.08l-0.17-1.08L306.96,199.55z M309.06,197.6l4.2-0.22l1.4,3.04l0.52-0.87v-0.87l0.18-0.22
		l-0.18-1.3v0.22l-1.05-0.87l-1.05,0.22l-2.1-1.3L309.06,197.6z M310.99,79.67l-0.52,1.08l0.52,0.87v0.43l2.45-0.65l0.88,0.65h0.88
		l0.18-0.22v-0.22l-0.53-0.65l-1.23-0.22l-1.22-1.3L310.99,79.67z M310.46,84.23l0.52,1.3l0.7-1.52L310.46,84.23z M311.86,213.21
		l-0.7,2.38l0.17,0.65h0.88l0.7-1.95l2.1,0.87l1.4-2.38l-0.53-1.08l-0.35,0.87l-1.05,0.65l-3.33-1.73L311.86,213.21z M316.59,215.59
		l-0.35,1.08l-1.23,0.65l1.05,0.87l1.23-0.43l0.52,0.43l0.35-0.43v-1.3l-0.7-1.08L316.59,215.59z M315.54,84.44l-0.35,0.43v0.43
		l0.53,0.65l1.22-0.65l0.18-0.65l-0.53-0.43L315.54,84.44z M315.54,87.7l-0.17,0.43l0.17,0.22l1.22-0.43l-0.7-0.43L315.54,87.7z
		 M315.71,79.89l0.88-0.65l0.7-1.73v-1.08l-0.7-0.22L315.71,79.89z M318.34,207.57l-1.4-0.43l-0.52,2.17l0.17,0.43l0.7-0.22
		l3.33-3.47l-1.75-0.22L318.34,207.57z M317.64,213.21v0.43l0.53,0.65l0.7-0.22v-0.87l-0.88-0.22L317.64,213.21z M319.74,82.28
		l-0.18,0.87l0.7-0.22l0.35-0.65l-0.35-0.43L319.74,82.28z M319.56,196.52l0.88,1.73l0.7-1.95l-1.05-1.52L319.56,196.52z
		 M319.74,85.53v0.43l0.52,0.43h0.88l-0.35-1.08l-0.88-0.22L319.74,85.53z M320.61,91.81l-0.53,0.87l0.17,0.87l1.05-0.43l0.7-1.08
		l-0.7-0.43L320.61,91.81z M324.11,209.74l-0.35,1.08l0.53,1.08l0.7,0.22l0.35-0.87l-0.35-0.87l0.17-0.65l-0.17-0.43L324.11,209.74z
		 M324.81,217.76l0.35,1.3l0.35,0.22l0.35-0.22l0.17-1.3l-0.88-1.3L324.81,217.76z M326.56,201.07l-1.05,1.52v1.73l0.7,0.43
		l0.88-0.65l0.88-0.43l0.53-0.87l-1.05-1.73H326.56z M326.56,208.22l2.1-0.43v0.22l0.17,0.22v1.08l-2.45,2.17l-0.88,2.38l1.4,0.43
		l1.05-0.43l-1.05-1.73l2.97-3.04l1.05-2.17l-3.33-0.22L326.56,208.22z M325.69,199.34l0.17,0.43h0.7l0.7-0.43l-0.7-0.65
		L325.69,199.34z M326.56,82.06l-0.18,0.43l0.18,0.43h0.35l0.35-0.43v-0.43l-0.35-0.22L326.56,82.06z M327.96,76.42l0.35,0.43h0.35
		v-0.65l-0.53-0.22L327.96,76.42z M327.96,197.82l0.17,0.65l0.53,0.43l1.58-0.65l0.17-0.65l-0.88-0.65L327.96,197.82z
		 M328.49,204.97l0.17,0.87l1.22-0.43l0.88-1.3l-0.88-0.65L328.49,204.97z M329.01,82.28l-0.17,0.43l0.53,0.43h0.35l0.17-0.43
		l-0.52-0.43H329.01z M329.54,211.26l-0.17,0.87l1.92,1.73l1.4-1.08l-2.28-1.95L329.54,211.26z M330.59,216.03l1.05,0.65l2.8-0.65
		l-0.35-1.08l-0.52-0.22L330.59,216.03z M330.94,201.29l1.75,1.08l0.17-0.22v-0.43l-0.88-0.65L330.94,201.29z M332.16,204.1
		l-0.17,0.43l0.17,0.43l0.35,0.22l0.53-0.43l-0.17-0.65l-0.35-0.22L332.16,204.1z M332.16,208.66l0.88,1.08l0.88-0.22l-0.53-1.08
		l-0.88-0.22L332.16,208.66z M336.54,206.27l-0.35,1.08l0.88-0.22l0.52-0.87l-0.35-0.43L336.54,206.27z M336.36,210.39l0.17,0.43
		l0.7,0.22l0.35-0.43l-0.17-0.43l-0.88-0.22L336.36,210.39z M336.71,213.86l-0.35,1.08l0.53,2.17l3.15-1.52l0.88,1.08h1.05
		l0.35-0.65l-0.88-0.87l-1.4-0.22l-1.4-1.52L336.71,213.86z"/>
	<path fill="black" d="M525.54,178.31l-0.17,3.47l-0.35,5.64l-0.53,3.25l-1.22,4.55l-1.05,3.04l-1.75,4.12l-1.57,2.82l-2.8,4.12l-1.92,2.38
		l-4.38,3.9l-2.28,1.73l-2.45,1.52l-2.62,1.52l-2.8,1.08l-2.62,1.08l-7.88,1.95l-4.03,0.65l-2.8,0.22l-4.2,0.43h-2.8l-9.62,0.43
		h-15.23l-9.8-0.65h-2.8l-9.63,0.43h-2.62l-6.65-0.22l-2.8-0.43l-2.45-0.43l-1.4-0.65l-0.88-1.08l-0.35-2.38l-0.18-3.03l0.18-3.25
		v-3.47l0.17-1.73v-3.69l0.52-11.49l-0.17-3.47l-0.17-5.42l-0.17-3.25l-0.17-3.04v-3.25l0.17-5.42v-9.54l0.7-11.49v-3.47
		l-0.35-11.49v-3.47l-0.17-11.49l0.17-3.47l0.53-11.49l0.17-3.47l-0.7-11.49l-0.17-3.47l-0.53-6.5v-4.99l0.7-2.82l1.75-1.3
		l2.45-0.43l2.8-0.22l19.08-0.65l15.23,1.08l9.45-0.43h2.8l9.62,0.22h2.8l10.15,0.87l2.97,0.43l2.97,0.65l6.65,2.6l2.62,1.52
		l3.33,2.17l2.28,1.95l2.97,3.03l1.75,2.38l2.45,3.69l1.22,2.82l1.93,4.12l1.05,3.03l0.88,3.25l0.52,3.47l0.7,5.64l0.18,3.47
		l-0.18,3.69l-0.52,3.69l-1.05,4.99l-1.05,3.04l-1.92,4.12l-1.75,2.38l-2.8,3.25l-1.4,1.73l-0.52,1.52l0.52,1.73l1.58,2.17l2.1,2.38
		l2.1,2.82l2.62,4.55l1.58,3.25l1.22,3.47l0.7,1.73l0.88,3.47l0.7,3.69l0.35,3.69L525.54,178.31z M416.69,210.61l-0.17,0.87
		l0.35,0.43l0.35-0.22l0.17-0.87l-0.17-0.22H416.69z M417.39,207.79v0.43l0.35,0.22l0.35-0.22l0.35-0.87l-0.17-0.22h-0.53
		L417.39,207.79z M420.54,163.13l-0.88,7.37l1.23-0.87l1.92,0.87l0.35-0.22l0.17-0.87l-1.58-0.87l0.88-2.82l-1.92-4.55l-1.4-0.43
		l0.88,1.95L420.54,163.13z M423.69,204.54h-1.58l-0.7-2.17l0.17-0.22l-0.53-2.17v0.22l-0.17,0.22h-0.17l-0.35-0.65h-0.17v1.95
		l0.35,0.65v2.17l1.05,0.43l0.7-0.22l0.88,0.65h1.57v-1.3h-0.7L423.69,204.54z M423.34,196.73l0.17-0.22l-2.28-0.43l1.05,0.43
		L423.34,196.73z M422.46,207.36l-0.35-0.43l0.18,2.82l0.52,0.22l0.17-0.65l-0.35-0.87L422.46,207.36z M423.69,192.61l-0.7-0.87
		l-0.17,1.3l0.35,0.22L423.69,192.61z M425.44,200.42v0.43l1.23,0.43l-0.7-0.65h-0.35L425.44,200.42z M431.39,164.43h-0.53
		l-0.88-4.77l-0.7-0.87l-0.35-2.82l-3.33-0.87l4.03,5.64v2.82l-0.53,0.65l-0.7,3.25l-1.58,1.3l0.52,1.08l1.23,0.65l1.22-2.17
		l-0.7-0.87l0.35-1.3l1.92,0.43l1.23-1.52l-0.18-0.87l-0.7-0.22L431.39,164.43z M429.29,186.55l1.05-3.04l-0.17-0.65l2.1-2.6
		l0.17-0.87l-0.7-0.22l-3.85,3.04l-0.35-0.22l-0.53,0.22l-0.53,1.3l1.23,1.08l-0.17-1.52l1.05,1.73l-0.17,0.22v1.08l-0.53,0.65
		h-0.35v0.43l0.35,0.43l2.1,0.43l-0.17-0.87L429.29,186.55z M431.56,144.27l-0.52,0.65h-0.53l-0.17,0.22l-1.23-0.43l-0.35,0.65
		l1.05,0.65l2.8-0.22l0.52-0.87l-0.35-0.65H431.56z M429.46,212.56l0.52,0.65l1.93,0.43v-1.08l-1.05,0.43L429.46,212.56z
		 M434.54,194.35l0.17-0.43l-1.58-1.08l-1.58,1.3l1.58,0.43L434.54,194.35z M431.91,209.09l0.7,0.43v-0.87l0.35-0.65l0.7-0.22
		l-1.58-1.52L431.91,209.09z M436.29,148.18l-0.7-1.3l-0.7-0.22l-0.88,0.43v0.65l1.75,0.87L436.29,148.18z M434.71,210.61
		l-0.17,0.65l0.7,0.65l0.35-0.43v-0.43l-0.35-0.43H434.71z M438.56,139.72h-0.88l-0.88,1.52v1.73l0.7,0.22l2.45-1.08l-0.35-0.87
		L438.56,139.72z M438.56,179.61l-0.35,1.08l2.28-0.65l0.17-1.95l-1.58,1.95L438.56,179.61z M441.19,137.55l-2.45-0.22v0.87
		l0.35,0.65l1.22-0.22L441.19,137.55z M441.54,155.76l0.35,0.65l0.17-0.22l-0.17-1.08h-0.35V155.76z M442.94,152.94l0.17,0.87
		l0.35,0.22l0.17-0.22v-1.08h-0.35L442.94,152.94z M444.51,141.67l0.18-0.43l-0.18-0.43l-0.88,0.43l-0.17,1.08l0.53,0.87l0.7,0.22
		l0.17-0.87L444.51,141.67z M445.91,119.13l0.17,1.73l0.17,3.47l0.35,2.38l0.7,1.3l1.4,0.87l2.1,0.22h7l2.97-0.22h2.98l4.02,0.43
		l5.95,0.43h3.85l2.27-0.65l2.1-1.3l1.75-1.52l1.22-1.73l1.05-2.17l0.53-3.04v-3.69l-0.53-2.82l-1.57-2.82l-2.45-2.17l-1.05-0.43
		l-2.62-0.87l-1.23-0.22l-2.97-0.43h-1.58l-6.83-1.08h-2.62l-4.38,0.22l-2.8,0.22h-3.68l-1.75,0.43l-1.58,0.22l-1.05,0.65l-0.7,1.08
		l-0.52,2.82l-0.53,5.2L445.91,119.13z M486.16,188.93l1.4-1.52l0.7-1.3l1.23-3.25l0.52-3.47l0.17-1.3l-0.17-3.03l-0.52-3.04
		l-1.4-3.04l-1.05-1.52l-2.28-2.82l-2.8-1.95l-2.62-1.08l-1.23-0.43l-2.45-0.22l-7.88,0.43l-2.97,0.22h-10.33l-2.62,0.22l-3.15,0.65
		l-1.58,0.65l-0.52,1.08l-0.17,2.6v3.69l0.17,3.47v4.77l-0.35,3.69v4.34l0.35,2.38l0.7,1.3l1.22,0.87l2.28,0.43l24.67-0.65
		l5.95-0.43l2.8-0.65L486.16,188.93z M448.01,146.88l1.93,0.65l1.22-0.87l-0.35-1.52h-1.4L448.01,146.88z M453.79,146.22l0.17-1.08
		l-0.35-1.08l-0.7,1.3L453.79,146.22z M453.79,211.26v0.43l0.17,0.22l0.7-0.22v-0.43l-0.17-0.22h-0.53L453.79,211.26z M456.59,154.9
		l0.18,0.65l0.7,0.65l1.4-1.52l-0.7-0.65l-1.05,0.43L456.59,154.9z M458.51,141.46l-0.7,0.43l-0.17,0.87l0.35,0.87l1.4,0.65
		l1.4-1.08l-1.58-1.3L458.51,141.46z M465.16,144.49l-1.4-1.52l-1.58,0.65l-0.35,1.08l0.53,1.08v0.43l2.98-1.3l0.88,0.87h1.05
		l0.17-0.65l-0.7-0.87h-1.05L465.16,144.49z M463.41,148.39l-1.4,0.22l0.88,1.52L463.41,148.39z M469.01,138.85l-0.88-0.22
		l-0.35,0.65l-0.17,3.68l1.05-0.87l0.53-1.95L469.01,138.85z M467.96,152.29l0.35,0.22l1.22-0.43l-0.7-0.43l-0.7,0.43L467.96,152.29
		z M473.04,144.49l-0.52,0.65l-0.17,1.08l1.05-1.08L473.04,144.49z M473.04,148.39l-0.35,0.43l0.88,1.08l0.88-0.43l-0.53-0.87
		L473.04,148.39z M473.91,157.06l0.18,0.87l1.05-0.43l0.88-1.3l-0.88-0.65l-0.88,0.43L473.91,157.06z M480.21,139.72l-0.17,0.43
		l0.35,0.43h0.35l0.35-0.43l-0.17-0.65h-0.35L480.21,139.72z M481.44,132.57l-0.17,0.43l0.17,0.22l0.7,0.22v-0.87l-0.35-0.22
		L481.44,132.57z M483.01,139.5l0.17,0.87h0.88l0.17-0.43l-0.88-0.65L483.01,139.5z M488.96,135.6l-0.7,1.3v0.22l-0.7,0.87
		l-0.52-0.43l-0.88,0.22v0.43l0.7,0.87l0.18-0.22h0.52l0.18-0.22h0.17l1.4,1.08l1.05-1.3l-0.18-1.08L488.96,135.6z M488.79,94.63
		l0.17-0.87h-0.35l-0.35,0.65l0.17,0.43h0.18L488.79,94.63z M488.79,213.64l0.7,0.43l0.52-0.22l0.17-0.65l-0.52-0.43L488.79,213.64z
		 M491.76,95.5l0.35-1.3l-0.7-0.43l-1.05,2.6l0.7-0.22L491.76,95.5z M491.94,136.25l1.05-2.82h-1.05l-1.05,2.17l0.53,0.87l0.35-0.22
		H491.94z M492.11,141.24l-0.7-0.22l-0.17,0.22h-0.18v0.43l0.35,0.43h0.35l0.35-0.43V141.24z M492.81,86.39l0.35-0.43l-0.7-0.65
		l0.17-0.87l-0.52-0.43l-0.53,0.22l0.17,0.87h-0.17l0.7,0.65L492.81,86.39z M492.64,159.67v-0.65l-0.17-0.22h-0.35l-0.53,1.52
		l0.35,0.22l0.35-0.22L492.64,159.67z M492.11,211.26l-0.35,0.65l0.17,0.43l3.15-0.43h-0.35l-0.53-0.43L492.11,211.26z
		 M494.21,144.92l-0.88-0.43v-0.65l-0.7,0.65v1.08l0.17,0.22h0.35l0.17-0.43l1.4,0.87l-0.53-1.08V144.92z M519.41,174.19l-0.88,0.22
		v-0.22l-1.22-1.08l-0.17-0.65l0.7-0.65l1.05-6.72l-1.58-0.22l-0.53,4.34l-0.88,0.87l-0.7,2.82l-3.67,0.43l-1.22-1.73l-1.58,0.87
		v-0.65h-2.62l-1.58,1.3l-0.17,1.08l-0.17,0.22l0.7,1.08l-3.5,1.52l-1.4-0.65l0.17-1.73h2.45l-0.17-0.65l-2.1-1.95h-0.7l-0.88-0.87
		h-1.05l0.17-0.22v-0.65h0.88l2.62-2.6l5.25,1.08v-3.69l-0.7-1.3l-1.05-0.43l-1.05,0.87l-0.17,1.52l0.7,0.22l0.17,1.08l-1.05,0.22
		l-0.88-0.65l-6.3,3.69v0.65l-1.4-0.22v0.22l-0.17,0.22l1.57,0.22l0.18,0.22l0.17,3.69l-2.28,1.52l-0.17,0.87h-1.05l-0.17,0.22
		l0.52,0.43v0.22l1.23,0.22v0.22h0.17v0.22l-0.17,0.22v0.43l-0.7,0.22v0.22l-0.17,0.22l2.45-0.43v-0.22l0.53-0.65l3.5,1.73
		l-0.17-1.3l-1.23-1.3h-0.17l-0.88-0.87l-0.17-1.08l3.85,2.38l1.4,3.47l1.58-0.22l0.17,0.22l2.28,0.65l2.27-4.12l-1.57-1.52
		l-0.7-2.6l3.5,1.95l0.7-0.65v-0.22h1.22l0.88-0.87h2.1l1.92,1.52l0.17,0.87l0.53,0.65l-0.18,3.25l-1.05,1.3l-0.7-1.08l-0.88-0.22
		l-0.7,1.3l0.52,1.08l1.05,0.65l0.35,0.87l-1.92,2.82l0.35,0.22l0.53,1.08l0.88,0.22l0.35,1.3h0.88l0.35-1.08l-0.17-0.87l2.1-6.07
		l-0.18-0.65L519.41,174.19z M494.04,198.47l0.17-0.65l-0.7-0.87l-0.35,0.22v1.52L494.04,198.47z M494.04,129.32h1.22l-1.75-1.52
		l-0.17,0.22v0.43L494.04,129.32z M496.14,136.69v-0.65l-0.35-0.65l-0.88-0.43l-0.17,0.22l-1.05,0.22l-0.35,1.73l2.1,0.22l0.18-0.22
		h0.35v-0.22L496.14,136.69z M495.79,139.94l-0.17-0.22h-0.88l-0.53,0.65v0.22l0.88,0.43l0.7-0.43V139.94z M495.26,89.86v-0.65
		l-0.52-0.43L494.39,89v0.43l0.35,0.65L495.26,89.86z M501.21,129.1l0.88,2.6h-0.17l0.17,1.08l-0.17,0.22l-0.35,1.73l0.52,1.08h1.05
		l0.53-0.43l0.88,0.43l1.4,3.04l0.7-1.08v-0.22l1.05-0.65l1.92,1.52v-0.22l0.17-0.22l-1.4-1.95l-0.35-2.38l1.05-2.17l3.33-2.17
		l0.17-1.52h-0.17l-0.7-0.87l-0.7-0.22l-0.7,0.43l-1.93-1.52l0.35-1.08l3.5-1.52l0.53-3.69l-1.4-0.87l-0.35-1.08l0.35-1.3
		l-0.17-0.22l-0.17-1.3l-1.4,0.87l-0.17,2.6l-1.23-0.43l-0.7-1.52l0.7-1.73l-1.22,0.43l-0.35,1.52l-1.22-0.87l-0.17-1.52h0.35
		l1.4-2.17l1.22-0.22l0.35-1.08l-0.88-0.22l-0.88,0.43l-1.75-1.95v-0.22h-0.18l-0.17-0.65l0.7-0.87l-0.53-1.3l-0.52,1.08v2.17
		l1.05,1.08l-0.17,0.43l0.7,0.43l0.88-0.22l0.17,1.08l-1.05,0.43l-0.18,1.3l-0.35-1.52l-2.45-1.52v0.65l0.88,1.08v0.22l-1.05,0.43
		v0.43l0.17,0.22v0.22l0.53,0.43v0.22h-0.17l-0.35,0.43h-0.17l-1.22-1.08l0.35-0.43l-0.7-1.52l0.7-2.17l-0.35-1.08l-0.53,1.73
		l-1.92,0.22l-0.88,1.3v0.87l-0.35,0.65l-0.35-0.43l-0.53,0.65v0.43l1.4,1.95l1.05-0.43l3.67,1.52v0.22l0.7,0.22l0.17,0.22v0.43
		l0.35,0.43l-0.17,0.22l-0.53,3.9l0.7,1.08l0.52-0.65l0.18-1.3l0.88,0.22l0.35,0.65l-0.35,1.3l0.35,1.08l1.22,0.43l-0.17,3.68
		l-0.35,0.22l-0.53,1.08l-0.88,0.22l-0.7,1.08v0.43l-0.88-0.22l-0.17-0.22l-0.17-2.17l-0.17,0.43h-0.17l-0.18,0.22l-0.88-0.87v-4.34
		l-1.4,2.38l-0.53,0.22l-3.15-2.38l-1.4,0.43l-0.53-0.43l-0.35,0.43h-0.35l-0.17,0.22l0.35,0.87L501.21,129.1z M495.61,103.95
		l0.7-2.38h0.88l-0.35-1.08l-1.58,2.17l0.17,0.22L495.61,103.95z M505.59,187.63l-0.88,0.87l-1.05-0.87l0.88-2.82l-0.7-0.87v-0.22
		l-0.88-0.87l-1.05,0.22l-0.17,0.65l0.52,0.65v0.87l-4.2-0.43l-0.7,0.65l-2.1-0.43v3.69l3.15-2.82l5.95,3.69l0.52,2.6l1.05-0.22
		l1.22-1.52l-0.88-1.73L505.59,187.63z M497.01,198.9l-0.7-0.43v0.22l-0.7,0.22v0.43l-0.18,0.22v0.87h1.58l0.17-0.43L497.01,198.9z
		 M497.71,140.37l0.88-1.73h0.35l1.23-1.3l-0.35-1.95l-0.88,2.17h-0.52l-0.7-0.65l0.17-3.47l-1.22-2.17l-0.88,0.65l-0.17,1.08
		l1.57,0.43L497.71,140.37z M495.61,204.54v0.65l0.52,0.65l0.17-1.08l-0.35-0.22H495.61z M496.66,123.03v0.22l1.05,0.65l0.17-0.22
		l0.88-0.22v-0.65l-0.7-0.65l-0.35-1.3l-0.7,0.65v1.08L496.66,123.03z M497.71,82.49v0.22l0.7,0.22l0.52-0.43l-0.17-1.08l-1.05-0.65
		l-0.88,0.22h0.17v0.43L497.71,82.49z M497.89,156.2l-0.7-0.22l-0.35,0.22v0.65h1.05V156.2z M501.04,189.58l-0.7-1.08l-2.1-0.43
		l-1.23,1.73l0.35,1.52l2.1-0.43L501.04,189.58z M497.01,209.31l0.17,0.65h0.53l0.35-0.87l-0.17-0.43h-0.7L497.01,209.31z
		 M497.71,97.88h1.22l-1.05-0.87v-0.87l-0.35-0.43l-0.35,0.43l0.18,0.87L497.71,97.88z M497.71,90.73l-0.17,0.22l-0.17,0.87
		l0.88,1.08l0.88-1.08l-0.35-0.65L497.71,90.73z M498.24,142.97l-0.35-0.22l-0.52,0.22v0.65l0.35,0.43h0.17l0.35-0.65V142.97z
		 M498.76,193.92l-0.17-0.22l-0.17-1.08h-0.35l-0.7,3.04l0.35,0.65l1.05,0.22l0.35-0.65l-0.18-0.87L498.76,193.92z M499.11,108.29
		v-0.22l-0.18-0.22l-0.88,1.3l0.7-0.22l0.53-0.65H499.11z M498.24,163.35l0.35,0.65h0.7l0.53-1.08l-0.88-1.3l-0.7,0.22l-0.18,1.08
		l0.18,0.22V163.35z M499.64,133.44h0.35l0.35-1.08l-0.7-1.08l-1.22,0.22l-0.17,0.43l0.35,0.65l0.7,0.22L499.64,133.44z
		 M498.41,199.34l-0.17,7.59h1.58v-0.22l0.7-0.87l-0.35-1.3L498.41,199.34z M500.86,144.49l-2.28,0.65l0.35,0.65l1.05-0.22v-0.22
		L500.86,144.49z M499.11,146.66l-0.35,0.43l0.17,1.08h0.35l0.53-0.87l-0.18-0.65H499.11z M499.99,103.09l-0.17-0.87l-0.7,1.3
		l0.17,0.22h0.35L499.99,103.09z M501.21,122.38l-0.17-1.08l1.92-3.04l-1.4,0.65l-1.93-1.08l-0.35,0.22l-0.17,0.65l1.4,0.87
		l-1.05,1.3v0.65l1.4,1.73v0.22l1.4,0.65l-0.35-0.87L501.21,122.38z M500.34,124.55l-0.35-0.22l-0.53,0.22l-0.17,0.87l0.7,0.22
		l0.35-0.65V124.55z M499.99,139.07l-0.7,1.3l0.17,1.73l1.05-0.43l0.35-1.08l-0.17-1.08L499.99,139.07z M501.04,192.83l-1.58,1.73
		l0.17,1.95l1.05,0.43l2.62-3.25L501.04,192.83z M499.81,183.29l0.52-0.22l0.17-1.08l-0.88,0.65v0.22l0.18,0.22V183.29z
		 M500.51,92.25l0.35-0.65v-0.43h-0.53l-0.35,0.43l0.35,0.65H500.51z M502.26,107.2l0.88-1.73l-2.97,1.08v0.43l0.35,0.22H502.26z
		 M501.91,198.68h1.05l0.17-0.22l0.7-0.22l-1.75-0.65l-1.4,3.47l1.4-0.43L501.91,198.68z M502.09,154.03l-0.35,1.08l0.17,1.3
		l1.58-2.38l-1.92-2.82l-0.53,0.22l0.17,1.52L502.09,154.03z M504.54,103.95l1.4,1.08l-2.62-6.72l0.35-1.08l0.7-0.65l0.88,0.87
		l0.88-0.65l0.35-0.87l-2.27-4.55l-1.23,1.08v1.08l-1.75,1.3L504.54,103.95z M501.74,209.74l-0.53,0.87v0.43l0.7,1.08h1.4
		l-0.18-1.73L501.74,209.74z M503.66,141.02l0.7-1.3l-0.17-1.95l-1.23-1.08l-0.7,0.65l-0.88,3.47h0.53L503.66,141.02z
		 M505.94,203.89l0.17-3.04l-4.73,6.5l2.28-1.08l0.17-0.65l1.75-1.52L505.94,203.89z M501.56,103.95l1.57-0.65l-0.17-0.22
		l-0.35-2.38l-0.35-0.22l-0.17-0.43l-0.52,0.65l0.35,1.08l-0.35,1.95V103.95z M502.44,160.75l6.12-3.47l0.17-1.52l-0.53-0.65
		l-4.02,3.04l-0.53,1.3l-0.88-0.65l-1.05,0.22l0.52,1.52L502.44,160.75z M503.66,172.24v-0.22l0.17-0.22l-0.52-0.65v-0.22l-1.4,0.22
		v0.65l0.35,0.65L503.66,172.24z M503.66,124.55h-0.35l-0.18,0.43l1.23,5.42l0.88-1.52v-0.43l-1.05-1.3l1.05-1.3L503.66,124.55z
		 M504.01,143.62l-0.88,2.17l0.18,0.65l1.05-0.43l1.05-2.38l-0.53-0.43l-0.52,0.22L504.01,143.62z M504.71,208.22l0.53,1.3
		l1.05-0.22l0.35-0.87l-1.22-1.3L504.71,208.22z M504.89,141.89h0.18l0.88-0.65l0.17-0.87l-0.17-0.43h-0.18L504.89,141.89z
		 M504.89,193.48l0.35,0.87h0.88l0.52-1.08l-0.88-0.22l-0.35,0.22L504.89,193.48z M505.41,100.27l-0.17,0.43h0.35l0.17,0.22
		l0.7-0.22l-0.35-0.65h-0.35L505.41,100.27z M505.94,149.69l0.7-0.65v-0.65l-0.35-0.22l-0.7,0.22v0.87L505.94,149.69z
		 M511.36,108.72l0.17,0.65l0.53,0.43l1.22-0.43l-0.35-2.6l-0.88,1.73v-1.95l0.17-0.22v-0.65h0.35v-0.22l0.53-0.87l1.05,0.22
		l0.35-0.22v-0.87l-1.75-2.82l-0.53,1.08l0.35,1.3l-1.05,1.3l-1.4,0.22l-0.18,0.87l-3.67,0.87v0.43L511.36,108.72z M508.74,193.92
		l1.05,0.22l0.7-0.87l-0.17-1.08h-0.7l-0.7-0.87l0.17-1.52l-1.92-3.25l-0.53,0.65l1.58,2.6L508.74,193.92z M507.34,93.98l0.7,0.87
		l0.35-1.3l-0.35-1.73l-0.88-0.22l-0.35,1.08l0.52,1.08V93.98z M508.74,197.38l-0.17-0.65l-0.53,0.22l-0.53,1.3l0.18,0.43l0.52,0.22
		l0.17-0.65L508.74,197.38z M508.39,103.52l0.88-0.22v-0.65l-0.35-0.43h-0.53l-0.35,0.87L508.39,103.52z M508.56,201.29l-0.53,1.52
		l0.17,0.65h0.35l1.22-3.04l-0.7,0.43L508.56,201.29z M510.49,161.4v-0.43l-0.53-0.87l-1.05-0.22l-0.17,1.08l0.52,0.65L510.49,161.4
		z M509.96,100.7l1.23,0.65l-0.88-3.68l-0.88,0.43l-0.18,0.87l0.18,0.65L509.96,100.7z M509.26,187.41v0.65l0.88,0.43l1.75-0.43
		l0.7,0.87l0.7-0.65l-0.17-1.3h-1.05l-0.35-0.43l-1.22-0.22l-0.7,0.65h-0.17L509.26,187.41z M509.79,111.97l0.7,1.95l1.22-0.43
		v-2.17l-1.4-2.17L509.79,111.97z M512.94,198.03l-1.58-0.87l-1.58,0.22l1.4,4.34l0.88-0.87h0.17l1.4-2.38v-2.17L512.94,198.03z
		 M510.66,183.51l0.7-0.22l0.35-0.87l-0.17-0.65l-1.22-0.22l-0.35,0.65v0.43l0.18,0.22v0.22L510.66,183.51z M512.94,134.95
		l-1.05-1.73l-1.75,0.43l0.88,1.95L512.94,134.95z M515.04,162.7l-1.75-2.38l-0.7,0.87l0.35,1.52l-0.35,0.22l-0.17,0.43l-0.7,0.22
		l-1.4,1.95l3.5,2.38l-0.17,1.08l0.7,0.43l0.53-0.43l-0.53-3.9l0.7-0.87V162.7z M513.64,123.46l-2.62,1.52l0.35,0.87l0.88,0.43v0.22
		h1.05l0.88-1.52v-1.52l1.58-3.25l-1.58-3.25L513.64,123.46z M514.51,191.1l-1.23-1.3l-0.52,1.08h-0.18l-0.88,0.87l-0.35,1.52
		l0.17,0.22l0.17,1.3l1.05-0.22l1.4,0.65l0.35,1.08l0.7-0.22v-1.95L514.51,191.1z M512.06,114.79l0.88,0.43l0.88-0.22l-1.05-1.3
		L512.06,114.79z"/>
	<path fill="black" d="M597.11,69.49l10.67-0.22h2.8l10.5,0.87h2.8l10.5-0.87h2.8l23.8,0.43l2.97-0.22l5.95-0.65h4.38l2.45,0.65l1.05,1.08
		l0.35,1.52l0.35,2.82v5.85l-0.35,5.42v3.69l0.17,5.42l0.17,3.25l-0.17,3.25l-0.35,2.6l-0.7,1.52l-0.88,0.87l-2.1,0.43h-1.4
		l-2.8,0.22l-16.45-0.43h-2.8l-8.92,0.43h-2.8l-9.1-0.43l-7.88-0.65h-2.62l-1.4,0.22l-1.75,0.43l-0.88,1.08l-0.17,1.3l-0.35,2.38
		l-0.35,5.2v3.47l0.17,3.69l0.18,2.38l0.35,1.52l0.7,1.08l1.92,0.65l5.6,0.43l5.6-0.43h16.62l19.6-1.3l5.42,0.43l1.93,0.43
		l1.05,1.08l0.52,1.3l0.18,2.38l0.35,3.69l0.17,3.69v7.15l0.35,4.99l-0.35,6.5l-0.35,2.6l-0.7,1.52l-1.22,1.08l-1.75,0.43h-3.5
		l-7.88-1.08l-2.8-0.22l-14,1.08l-11.2-0.43h-2.8l-7-0.65l-2.97,0.22l-2.1,0.22l-0.88,0.65l-0.53,1.52l-0.17,3.25l-0.53,5.42
		l-0.17,3.47v4.77l0.17,2.17l0.53,1.52l0.7,0.87l1.92,0.22l9.62,0.43h2.8l9.45-0.87l12.43,0.87h2.8l12.42-0.87h2.62l2.62,0.22
		l6.3,0.87l1.05,0.65l0.7,1.3l0.17,2.38l0.53,11.92l-0.18,3.47l-0.7,11.71l-0.18,2.17l-0.7,1.52l-0.88,0.87l-22.93,0.87h-2.8
		l-9.28-0.87l-2.8,0.22l-9.1,0.87l-2.8,0.22h-12.08l-9.1-0.87h-2.8l-15.05,1.08l-5.95-0.43l-2.1-0.43l-1.22-1.08l-0.53-1.52
		l-0.35-2.38l-0.35-4.99l-0.17-3.47l0.17-3.25v-3.25l0.7-11.49v-3.47l0.17-11.49l-0.17-3.47l-0.52-11.49l-0.18-3.47l0.35-11.71
		v-18.43l0.7-11.49l-0.18-3.47l-0.52-11.49l-0.17-3.47v-5.2l0.35-6.5v-3.25l0.53-11.27l0.17-3.04l0.52-1.73l0.88-0.87l1.4-0.22
		l2.28-0.43L597.11,69.49z M586.78,211.04l-0.7-0.43l-0.35,0.43v0.87l0.52,0.87l2.1-1.52l-0.7-0.65L586.78,211.04z M591.33,83.14
		l-5.25,1.3l1.22,0.43l1.4,1.73l1.4-0.43l-1.93-1.08v-0.43l5.08-2.17l-1.92-1.52V83.14z M596.76,96.8l-0.52,0.65l0.17,0.22v0.43
		l-1.58,1.3l2.28,3.9h-0.17v0.22h-0.18l-0.52,0.43l-0.17-0.22h-0.18l-3.15-2.38l-4.73,3.25v0.22h-0.17l-0.7,0.87v3.03l0.17,0.22
		l0.35-0.22v-0.22l-0.17-0.22l3.67-1.08v1.73h-0.88l-1.75,2.6l1.58,5.2h0.52v-0.65l0.7-1.3l1.05,3.9l-2.27,3.25l1.58,0.43l0.52,0.87
		h2.45l0.35,0.65l0.53,0.22l0.17-0.65l-0.17-0.43l-2.1-0.65l-0.88-3.04l2.45,0.43l1.75,2.17l0.35-2.17l-5.42-5.42l0.35-0.87
		l0.88-0.65l1.22,0.22v0.22l4.2-2.6l-0.17-1.52l-0.7-0.65l-1.58,1.08l-0.7-0.22l-0.18-1.08l0.53-0.65l0.17-1.08l2.45-0.43l3.15-7.15
		l-0.53-1.08l-2.28,0.65l-0.35,0.43l-1.22-2.17H596.76z M587.83,81.19l0.88,0.87h1.05l0.18-0.22v-0.43l-0.88-0.65L587.83,81.19z
		 M588.53,203.89l-0.17,0.22l0.17,0.43h0.7l0.17-0.22l-0.53-0.43H588.53z M588.88,127.8l0.18,0.22l-0.53,1.73l1.05,1.73l0.17-1.73
		l-0.17-4.12L588.88,127.8z M588.71,137.55l0.53,0.43l0.35-0.43l-0.17-0.65l-0.88-0.22L588.71,137.55z M591.16,90.51l-1.92,0.43
		l-0.17,1.08l0.52,1.52l1.05,0.65l0.18-0.43l0.35-0.22l0.17-3.04H591.16z M589.06,139.72l0.35,0.65h1.05l-0.52-0.87l-0.88-0.43
		V139.72z M591.33,147.74l-2.1,1.95v0.65l0.52,0.22l0.35-0.22l2.97-3.69l-1.58-1.52L591.33,147.74z M589.23,213.86l0.52,0.65
		l0.88-0.22l-1.4-1.08V213.86z M596.58,124.55l0.7,0.43l-1.22,2.82l-0.53,0.22l0.7,1.3l2.27-0.22l0.35,1.3l0.88,0.65l-2.45,3.25
		l-1.05-0.65l-2.8,2.6l1.57,1.3l-1.75,2.38l0.35,1.52l-0.53,1.08l0.35,1.08l1.22-0.65l0.7,0.43l0.35,1.08l-1.05,3.25l1.05,0.65v1.52
		l-1.4,0.22l-0.7,1.08l0.17,0.87l2.45,1.52l0.35,1.08l0.88,0.65v2.6l-0.7,0.65h-1.57l-2.28-1.95l-1.92,4.12l-1.4,0.43l0.7,0.65
		l0.88-0.65l-0.35,2.82l0.88,1.3l0.7-0.22l0.35-0.65l-0.17-0.65h-0.53l1.22-4.12h0.7l0.53,0.43h0.52l0.7,1.95l0.35-1.95l2.1-1.3
		l0.17-3.69l0.7-0.65v-1.08l0.53-0.65l0.35-2.6l-2.28-6.5l-1.22,0.22l-0.53-1.52l0.53-1.52l-0.53-0.87l2.62-2.38l0.18-0.87
		l1.22,0.22l0.35,0.65h0.7l0.18-0.22l-0.35-1.08l-2.1-0.65v-1.95l1.22-0.22l1.58,0.87l0.53-1.08l-1.23-0.65l-0.7-1.73l1.23-0.65
		l0.52-1.52l1.58-1.3l-0.17-3.04l-0.53-0.22l-0.88-1.3l-0.7,0.22l-0.18,0.65l0.88,1.52l-0.17,1.08l-0.17,0.22h-0.17l-0.7-0.87
		l-2.1-0.22l-0.88-1.3v-2.82L596.58,124.55z M597.28,92.46l-0.88-0.22l-0.17-0.43h-0.35l-0.52,0.43v0.65l-0.53,0.87v0.43l-1.22,1.3
		h-0.88l-0.53,0.43l-2.27,3.04v0.22l-0.18,0.22v0.43h0.18v0.43l0.7-0.22v-0.22l1.23-1.08l-1.05,1.52l2.45-2.38l-0.17-0.22h-0.35
		l0.17-0.65l4.9-3.47l0.7,0.22l0.18,2.6l-0.35,0.65h0.17l0.18,0.22l1.4-0.43l1.05-1.73V91.6l-0.88-0.43L597.28,92.46z
		 M590.11,156.63l-0.17,0.22l-0.18,0.87l0.7-0.22v-0.87H590.11z M590.11,197.82l0.17,0.22h0.17l0.17,0.22v-0.22h-0.17l-0.17-0.22
		H590.11z M593.61,204.54l-1.23,0.43l-0.88,1.73l-1.05,0.22l-0.35,0.43l0.52,0.87h0.53l2.62-3.25v-0.43H593.61z M591.51,110.89
		l0.53,1.08l-0.35,0.43l-1.23-1.73h0.88L591.51,110.89z M590.98,167.9l-0.53,2.6l0.7-0.22v-0.43l-0.35-0.43l1.57-1.95L590.98,167.9z
		 M590.98,86.18l-0.35,1.08l1.05-0.43l0.52-0.87l-0.52-0.43L590.98,86.18z M591.33,123.9l-0.17,0.87l0.17,0.22l0.7-0.22l0.17-1.08
		l-0.35-0.22L591.33,123.9z M591.68,139.29l-0.53,0.43l0.53,0.43l0.7-0.22l0.18-0.22l-0.18-0.43H591.68z M592.21,172.45l-0.88,0.87
		l0.17,1.08l2.45,1.3l1.75,0.87l-2.27-4.12H592.21z M591.86,89.21l0.35,1.95l0.7,0.22l0.35-1.3l-0.52-1.52L591.86,89.21z
		 M594.13,109.37l-0.88,1.73l-0.7-0.22l-0.18-0.87l0.18,0.22v-0.22l0.52-0.87L594.13,109.37z M592.38,128.02l0.18,5.42l0.7,0.65
		l0.7-1.3l-0.17-0.43l0.17-1.08l0.88-0.22l0.53,0.43h0.52v-0.65l-0.35-0.22l-0.35-1.52l-1.75-1.08H592.38z M592.56,177.44
		l-0.18,0.22l0.18,0.65h0.35l0.35-0.43l-0.35-0.43H592.56z M592.73,217.33l-0.17,0.43l0.88,0.87l0.88-0.87l-0.88-0.65L592.73,217.33
		z M593.61,171.59v0.87l0.7-0.22l0.17-0.87l-0.17-0.22L593.61,171.59z M593.78,124.76v0.65l0.35,0.65l0.18-0.65v-0.65H593.78z
		 M594.31,199.55l0.35,0.43v-0.22l-0.35-0.43V199.55z M595.18,80.76l0.88,1.52v0.87l0.7,0.87l-0.88,4.12l0.53,1.3l3.15,1.52
		l1.05-0.43l0.53-1.08l-2.8-1.73v-1.95l4.38-0.65l-0.35-1.08l-1.22-0.65l0.17-0.22l-1.4-1.08h-0.88l-0.88-1.73l-2.1-0.65
		L595.18,80.76z M608.48,93.55l-0.53,4.34l-1.22,0.22l-1.58-2.6h-2.27l-0.7,5.2l1.22,3.25l-1.58,0.22l-1.22,1.95l0.7,0.65v2.17
		h-1.23l-0.7-0.65l-1.75,3.9l-1.57,0.65l-0.35,1.3l1.23-0.65l1.57,1.95l0.88-1.52l-0.52-1.08h0.17l0.17-0.22h0.7v0.22h-0.17
		l0.52,0.87l1.58,0.22l0.53,4.99l-2.1-1.52l-0.17,2.6l1.58,0.22l0.35-0.43l1.57,0.65l0.7,1.3l1.23,0.43l0.52-0.65l0.17-1.08v0.22
		l1.75-1.52l-1.22-0.22l-0.53-1.08l0.18-1.52l-0.53-1.3l-0.88,4.34h-1.4l1.05-7.8l1.22-0.65l-1.4-1.3l-0.17-1.08l1.4-0.65l0.35-0.65
		l-0.7-0.65l0.18-0.87l1.75-0.65l0.35,2.38l0.53-0.65l0.35-2.82l-2.1-3.25l0.17-1.3l0.7-0.22l0.88,0.43l1.22-2.17l-0.17-4.55
		L608.48,93.55z M595.71,205.62l0.35,2.6l0.52,0.22v-0.22l0.17-0.22l1.4,0.22l-0.53-1.08l-1.05-1.3h-0.17l-0.53-0.43L595.71,205.62z
		 M596.23,116.74l2.27,1.52l1.05-0.87l-1.23-0.43l-0.88-0.43l-0.7-1.3L596.23,116.74z M598.51,165.08h-1.57l-0.7,0.65l1.75,1.3
		l0.52-1.52l1.4,0.65l1.05-1.52L598.51,165.08z M596.76,136.04l0.18,1.08h-0.35l-0.17-1.95L596.76,136.04z M598.33,147.09
		l-0.35,0.65v0.43h-0.53l-0.52-0.22v-0.43h0.17l0.35-0.65L598.33,147.09z M600.43,83.58v1.08l-3.15-0.65l0.7-1.73L600.43,83.58z
		 M598.51,161.18l-1.05,0.65l1.23,1.08l0.88-0.87l-0.35-0.87H598.51z M597.46,170.94l0.17,3.69l1.05-1.73l-0.88-1.95H597.46z
		 M598.51,150.34l0.35,0.65l-0.7,1.08v-0.22l-0.35-0.22v-0.65l0.17-0.22v-0.65l0.52-0.43V150.34z M598.33,168.55l-0.17,0.87h0.53
		l0.35-0.65v-0.87L598.33,168.55z M598.86,141.02l-0.53,0.22l0.7,1.08l0.53,0.22l0.35-0.22v-3.9L598.86,141.02z M599.03,121.73v0.43
		l0.53,0.65l0.35-0.65l-0.17-0.43H599.03z M609.18,89.43h-0.88l0.17-1.3l-0.17-0.43h-0.17l-0.35,0.43L607.61,89l0.17,0.22
		l-2.27-1.08v-0.22h-0.7l-0.7-1.52l-0.7,0.43l-0.17-0.22l-1.4-0.43h-0.88l-0.52,0.65l1.4,1.3h1.05l1.4,1.3l0.53-0.65l-0.35,3.04
		l0.88-0.65l0.35-2.17l-0.17,2.17l1.22,1.3l0.7-0.22V91.6l-0.53-1.08l2.98-0.65l0.35-0.87l0.35-0.22l-0.17,3.47l0.53,0.22l0.53-3.9
		h0.35l-0.88-3.68L609.18,89.43z M600.78,142.54v0.43l2.98,0.22l0.52-0.87v-1.08l-0.88-1.52L600.78,142.54z M601.13,157.71v1.95
		l0.35,0.43l0.88-0.43l-0.35-2.17l-0.35-0.22L601.13,157.71z M601.31,148.39v0.43h1.4v-1.08l-0.88-0.22L601.31,148.39z
		 M601.66,205.84l-0.17,0.43l0.53,1.52h0.7l0.35-0.65l-0.35-0.87l-0.52-0.43H601.66z M602.36,154.25l1.05,1.3l0.53-1.08l-0.35-0.87
		l-0.52-0.22L602.36,154.25z M603.93,128.67l-1.23,2.6l0.88,0.65l1.58-0.65l0.17-2.17l-0.52-1.3L603.93,128.67z M603.23,136.04
		l-0.17,1.3l0.52,0.87h0.7l1.4-3.25l0.7-0.22l-2.8-0.87L603.23,136.04z M603.76,206.49l-0.53,0.43l0.53,0.87l1.57,0.22v-0.43
		l-0.17-0.22h-0.52l-0.35-0.87H603.76z M603.58,83.36l0.35,0.65l0.88,0.22l0.7,0.22l0.17-0.43l-0.17-0.43l-1.4-0.43L603.58,83.36z
		 M604.11,186.11v1.73l0.7-0.22l0.35-0.43l0.17-0.87l-0.52-0.65L604.11,186.11z M604.98,125.41l0.17,0.87l1.92,1.08l0.53-0.87
		l-0.17-1.3l-1.58-0.43L604.98,125.41z M605.16,142.32l0.17,0.65l0.53,0.22l0.35-0.22v-0.43l-0.7-1.08L605.16,142.32z
		 M605.16,217.54l0.17,0.43l0.35,0.22l0.35-0.22l-0.35-1.3L605.16,217.54z M606.56,199.77l-0.53,0.87h-0.17l-0.53,3.04l0.88-0.65
		l1.75,0.43l0.18-1.95l-0.18-0.43l0.35-0.87l-0.88-0.65L606.56,199.77z M607.43,138.42h-0.35l-0.17,0.22l-0.7-0.43l-0.52,0.65
		l0.52,0.65l0.88-0.22l0.18,0.22h0.88l0.7-0.87v-0.65l-0.7-0.22L607.43,138.42z M605.86,161.83l-0.17,0.65l0.52,0.87l0.53-0.87
		l-0.35-0.87L605.86,161.83z M606.56,156.63l-0.53,0.87l0.17,0.65l0.88,0.22l0.35-1.3l-0.88-1.52V156.63z M606.21,153.38v0.43
		l0.18,0.22l0.17,0.43l0.35-0.43v-0.87L606.21,153.38z M607.26,150.13l0.88,1.08l-1.05,1.3l1.58-0.43l-0.7-3.03L607.26,150.13z
		 M607.78,142.11l-0.52,3.69l1.75-0.65l0.52-2.17l-0.17-0.22v-0.22l-0.7-0.87L607.78,142.11z M608.13,214.94l-0.18,0.87l0.18,0.22
		l-0.53,0.87v3.9h-0.17v0.43l-0.17,0.22l1.22,0.65l-0.17-3.04l0.52-1.08l-0.17-0.43l0.53-0.43l-0.17-2.38L608.13,214.94z
		 M607.96,208.87l0.7,0.65l0.35-0.22l0.17-0.43l-1.05-0.43L607.96,208.87z M608.31,111.97l0.88,0.22v-0.43l-0.88-0.22V111.97z
		 M608.83,190.23l-0.35,1.73l0.7,0.65l-0.17-1.3l0.35-0.65v-0.43H608.83z M609.18,117.39l-0.17,0.43l0.17,0.43l0.52,0.22l0.35-0.22
		l-0.17-0.87l-0.35-0.22L609.18,117.39z M609.88,106.99l-0.7,0.87l1.05,0.22l0.7-0.65l-0.17-0.65L609.88,106.99z M610.23,96.58v0.43
		l1.4,0.65l0.7-0.87h-0.53l-0.53,0.22l-0.52-0.65L610.23,96.58z M612.16,81.41l-0.52-0.43l-0.53,0.65l0.35,0.65l0.7-0.22h0.18
		l0.17,0.22h0.7l0.7-0.65v-0.65l-0.7-0.22L612.16,81.41z M612.51,206.92l-0.88,0.22l-0.35,0.65l0.53,0.87l0.7,0.22l0.52-0.43
		l0.18-0.65l-0.18-0.87H612.51z M611.63,154.68l0.17,0.87l0.17,0.22l0.35-0.87l-0.35-0.43L611.63,154.68z M613.38,102l1.22,0.43
		l-0.7-1.08l-0.7-0.65l0.35-0.43v-0.43l-0.7-0.22L613.38,102z M613.73,83.58l-0.35,0.43l0.35,0.65l0.53,0.22l0.52-0.22l0.18-0.65
		l-0.18-0.43l-0.35-0.22L613.73,83.58z M613.38,205.4l0.17,0.65l0.35,0.22l0.35-0.22v-0.43l-0.35-0.65L613.38,205.4z M614.43,211.04
		v0.65l1.75,0.65l0.7-1.08l-1.4,0.43l-0.52-0.65H614.43z M615.48,95.72h0.7l0.88,0.43l0.53,0.87l0.17-1.73l-2.45-0.22L615.48,95.72z
		 M615.83,98.75l0.35,0.43l0.35-0.22v-0.22l-0.35-0.65l-0.53-0.22L615.83,98.75z M615.83,203.89l0.7,0.65l-0.17,2.38l8.05,0.87
		l1.4-1.3h-1.58l-4.38,0.43l-0.7-1.08v-1.08l0.88-0.43l0.18-1.3l-0.53-0.87l-3.85-0.22V203.89z M616.71,91.81l0.17,0.65l0.17-0.43
		l0.35-0.65l-0.52-0.22L616.71,91.81z M617.58,199.12l0.35,0.87h1.92l-1.75-1.73L617.58,199.12z M618.28,217.54l1.58,0.43
		l-1.75-1.95l0.35-1.08l-0.88-0.22L618.28,217.54z M617.93,77.94l0.53,0.43l-0.18,1.95l6.83,1.08l1.05-1.08h-4.9l-0.53-0.65v-1.08
		l0.7-0.43l0.17-0.87l-0.35-0.65l-3.15-0.43L617.93,77.94z M618.81,89.43l0.17,0.87l0.17,0.22l0.35-0.22l0.17-0.43l-0.35-0.65
		L618.81,89.43z M618.98,97.67v1.52l0.35,0.22l0.88-1.73l-0.88-1.73L618.98,97.67z M619.16,84.01l0.53,0.65l0.7,0.22l0.35,2.6
		l0.35,0.43l-0.35,2.82l-0.17,0.43l0.17,0.65l0.35,0.22l2.62-5.42l-0.17-1.3h-1.23l0.17,0.65l0.53,0.22v0.22l-1.4-0.65v-0.22
		l-0.52-0.87l0.17-0.87l0.17-0.22v-0.43L619.16,84.01z M619.86,100.49l-0.17,0.22l0.17,0.65l0.7,0.65v-0.87l-0.35-0.65H619.86z
		 M620.38,209.09l0.17,0.87l1.92,0.43l0.7,0.87l0.17-1.95l-2.27-0.65L620.38,209.09z M620.91,212.56l0.18,0.87l0.88,0.43l-0.35-1.3
		H620.91z M621.96,204.97l0.35,0.87l0.53-1.3l-0.53-0.22L621.96,204.97z M622.31,198.9l-0.17,0.87l0.52,0.87l1.23-0.22l0.88-1.08
		l-1.22-0.65L622.31,198.9z M622.83,75.12l-0.35,0.65v1.3l0.53,0.43l0.7-0.43l1.58-0.22l-1.05-2.17l0.53-0.43l-2.1-0.43
		L622.83,75.12z M623.88,84.66l1.58,0.87l1.22-0.43l-0.17-1.3l-1.22-0.22L623.88,84.66z M624.58,202.15l-0.17,0.65l0.52,0.65
		l0.53-0.22v-1.08l-0.35-0.22L624.58,202.15z M625.63,196.73l-0.88,0.43l0.7,0.87l0.7,0.22l0.52,3.25l0.53,0.43l-0.35,4.55
		l0.53,0.22l2.1-5.85l0.88-0.65l-0.17-1.52h-1.75l0.88,1.08h0.17v0.22l-1.4-0.43v-0.43h-0.35v-0.22l-0.52-1.08v-0.87l0.35-0.43
		l-0.17-0.43L625.63,196.73z M625.11,213.86l0.35,0.22l1.05-2.17l-1.22-1.95L625.11,213.86z M625.81,97.45l0.17,1.08h0.35l0.17-0.22
		l0.17-0.87l-0.7-1.3L625.81,97.45z M648.91,196.52l-1.92,4.12l-1.75-0.22l-2.28-3.04l-1.05,0.65l-0.17,1.95l0.35,0.65l-0.53,2.82
		l-2.62-4.12l-0.7,0.43l-1.58-0.43l-0.53,1.95l-0.52,0.43l-1.05-0.43l-1.05,0.43l0.53,1.73h1.92l-0.17,1.73l-1.05,0.87l-1.4-0.87
		l0.35,1.52l1.05,0.43l-0.53,1.52l-1.23,0.22l-0.88-1.73v-1.08l-1.75-1.52l-1.05,2.17l0.17,0.87l-1.75,1.3l-0.7-1.08l-1.05,0.22
		l0.7,1.08l1.05,0.43l1.75-1.08l0.53,0.22l0.35-1.95h0.88l0.35,1.08l0.88,0.43l-1.4,0.43l-1.4,1.95v0.65l0.52,0.43l0.88-1.08h0.53
		l0.17,1.3h0.88l0.35-0.87l0.7,0.65l-1.05,1.73l-0.35-0.43l-1.75,0.65l-1.75-1.08l-1.4,0.22l1.58,1.08l-0.17,2.38l1.57,1.3h0.88
		l0.53,0.43l-0.35,0.22v0.43l0.35,0.65l3.15-1.73l-0.53-2.17l1.05-1.73l0.18-2.17h0.35v-1.08h0.53l0.35-0.43l3.85-0.22l0.53-0.87
		l-0.7-0.65h-0.88l-0.17-0.87l0.53-0.87l0.88,0.43l0.88-0.87v-1.52l2.62-1.3l0.52,0.65h0.7l0.53,0.87l1.22,0.22l0.35,0.87
		l-1.58,1.52l0.7,0.43l-0.18,1.08l-3.67,1.95l3.15,1.08l0.35,2.6l-0.7,1.95l1.23,1.52v0.65l1.22,0.65l0.53-0.87l-1.75-8.02
		l1.22-2.17l2.62-1.08l0.53-1.3l-0.7-1.08l-1.05-0.43l1.4-4.12l-1.92-0.65v-3.03H648.91z M625.98,215.59l0.18,0.87l0.7,0.65v-0.87
		l-0.35-0.65H625.98z M628.43,76.42l-0.17,0.87l0.35,0.87l0.7,0.22l0.17-0.65l-0.17-0.65l0.17-0.65l-0.17-0.22L628.43,76.42z
		 M628.43,84.01l0.53,0.87l0.17-1.95L628.43,84.01z M629.66,202.15l1.92,0.87l1.4-0.65l-0.17-1.52l-1.4-0.22L629.66,202.15z
		 M630.71,98.1v0.43l0.35,0.43h0.7l-0.17-0.87H630.71z M634.38,94.2l-2.8-1.52l0.52,1.52l-0.52,1.95l0.17,0.43h0.53l0.7-1.52
		l1.75,0.87l1.22-1.95v-1.52L634.38,94.2z M632.98,77.94l-0.17,0.65l0.35,0.87l1.22,0.65l1.23-0.87l-1.93-1.73L632.98,77.94z
		 M632.81,199.55l0.88,0.87l0.18-1.08l-0.18-1.08L632.81,199.55z M634.91,197.6l4.2-0.22l1.4,3.04l0.53-0.87v-0.87l0.17-0.22
		l-0.17-1.3v0.22l-1.05-0.87l-1.05,0.22l-2.1-1.3L634.91,197.6z M636.83,79.67l-0.53,1.08l0.53,0.87v0.43l2.45-0.65l0.88,0.65h0.88
		l0.17-0.22v-0.22l-0.53-0.65l-1.22-0.22l-1.22-1.3L636.83,79.67z M636.31,84.23l0.53,1.3l0.7-1.52L636.31,84.23z M637.71,213.21
		l-0.7,2.38l0.17,0.65h0.88l0.7-1.95l2.1,0.87l1.4-2.38l-0.52-1.08l-0.35,0.87l-1.05,0.65l-3.33-1.73L637.71,213.21z M642.43,215.59
		l-0.35,1.08l-1.22,0.65l1.05,0.87l1.22-0.43l0.53,0.43l0.35-0.43v-1.3l-0.7-1.08L642.43,215.59z M641.38,84.44l-0.35,0.43v0.43
		l0.52,0.65l1.23-0.65l0.17-0.65l-0.53-0.43L641.38,84.44z M641.38,87.7l-0.17,0.43l0.17,0.22l1.23-0.43l-0.7-0.43L641.38,87.7z
		 M641.56,79.89l0.88-0.65l0.7-1.73v-1.08l-0.7-0.22L641.56,79.89z M644.18,207.57l-1.4-0.43l-0.53,2.17l0.17,0.43l0.7-0.22
		l3.33-3.47l-1.75-0.22L644.18,207.57z M643.48,213.21v0.43l0.52,0.65l0.7-0.22v-0.87l-0.88-0.22L643.48,213.21z M645.58,82.28
		l-0.17,0.87l0.7-0.22l0.35-0.65l-0.35-0.43L645.58,82.28z M645.41,196.52l0.88,1.73l0.7-1.95l-1.05-1.52L645.41,196.52z
		 M645.58,85.53v0.43l0.53,0.43h0.88l-0.35-1.08l-0.88-0.22L645.58,85.53z M646.46,91.81l-0.52,0.87l0.17,0.87l1.05-0.43l0.7-1.08
		l-0.7-0.43L646.46,91.81z M649.96,209.74l-0.35,1.08l0.52,1.08l0.7,0.22l0.35-0.87l-0.35-0.87l0.17-0.65l-0.17-0.43L649.96,209.74z
		 M650.66,217.76l0.35,1.3l0.35,0.22l0.35-0.22l0.17-1.3l-0.88-1.3L650.66,217.76z M652.41,201.07l-1.05,1.52v1.73l0.7,0.43
		l0.88-0.65l0.88-0.43l0.52-0.87l-1.05-1.73H652.41z M652.41,208.22l2.1-0.43v0.22l0.18,0.22v1.08l-2.45,2.17l-0.88,2.38l1.4,0.43
		l1.05-0.43l-1.05-1.73l2.98-3.04l1.05-2.17l-3.33-0.22L652.41,208.22z M651.53,199.34l0.17,0.43h0.7l0.7-0.43l-0.7-0.65
		L651.53,199.34z M652.41,82.06l-0.17,0.43l0.17,0.43h0.35l0.35-0.43v-0.43l-0.35-0.22L652.41,82.06z M653.81,76.42l0.35,0.43h0.35
		v-0.65l-0.52-0.22L653.81,76.42z M653.81,197.82l0.17,0.65l0.52,0.43l1.58-0.65l0.18-0.65l-0.88-0.65L653.81,197.82z
		 M654.33,204.97l0.17,0.87l1.23-0.43l0.88-1.3l-0.88-0.65L654.33,204.97z M654.86,82.28l-0.17,0.43l0.52,0.43h0.35l0.17-0.43
		l-0.53-0.43H654.86z M655.38,211.26l-0.17,0.87l1.93,1.73l1.4-1.08l-2.27-1.95L655.38,211.26z M656.44,216.03l1.05,0.65l2.8-0.65
		l-0.35-1.08l-0.53-0.22L656.44,216.03z M656.78,201.29l1.75,1.08l0.17-0.22v-0.43l-0.88-0.65L656.78,201.29z M658.01,204.1
		l-0.18,0.43l0.18,0.43l0.35,0.22l0.53-0.43l-0.18-0.65l-0.35-0.22L658.01,204.1z M658.01,208.66l0.88,1.08l0.88-0.22l-0.53-1.08
		l-0.88-0.22L658.01,208.66z M662.39,206.27l-0.35,1.08l0.88-0.22l0.53-0.87l-0.35-0.43L662.39,206.27z M662.21,210.39l0.18,0.43
		l0.7,0.22l0.35-0.43l-0.17-0.43l-0.88-0.22L662.21,210.39z M662.56,213.86l-0.35,1.08l0.53,2.17l3.15-1.52l0.88,1.08h1.05
		l0.35-0.65l-0.88-0.87l-1.4-0.22l-1.4-1.52L662.56,213.86z"/>
	<path fill="black" d="M834.41,215.81l-0.18,3.47v1.95l-0.52,2.6l-1.05,1.52l-1.23,0.65l-1.75,0.43h-1.4l-2.45,0.22l-19.43-1.3h-13.12l-15.75,1.3
		l-10.15-0.87h-12.95l-8.05,0.65h-2.63l-2.45-0.22l-1.93-0.43l-1.22-0.87l-0.88-1.3l-0.35-2.6v-3.47l0.88-8.24l0.17-3.25l-0.7-11.49
		v-3.47l0.35-11.49v-3.47l0.35-26.45v-3.47l-0.7-26.45v-3.47l-0.17-11.49V86.39l-0.35-6.5v-3.25l0.18-1.95l0.52-2.82l0.7-1.3
		l1.22-0.65l1.93-0.43h1.4l2.62-0.22l8.58,0.65h2.8l12.43-0.22h1.75l1.22,0.87l0.88,1.52v18.86l0.35,12.57v3.47l-0.53,12.57v3.47
		l0.35,12.57v3.47l0.52,12.57v3.47l-1.05,28.61l0.17,2.17l0.17,1.08l0.35,1.08l0.88,0.87l2.1,0.43l5.95,0.43l5.25-0.43h2.8
		l25.2-0.43l2.8-0.22l5.95-0.87l2.8-0.22h2.62l2.1,0.65l1.22,1.3l0.53,1.52l0.17,2.38l0.17,12.14l0.17,3.47L834.41,215.81z
		 M743.93,172.89l-0.53-0.22l-0.17,0.22l0.17,1.95l0.53-1.08V172.89z M744.46,156.63h0.53l-0.53-0.65l-0.52,0.22L744.46,156.63z
		 M744.63,91.38l0.88,0.87l0.35-0.22l0.17-0.43l-0.7-0.87L744.63,91.38z M744.81,168.12l1.92,2.38h0.7l0.7-1.3l-0.18-1.08
		l-0.52-0.65l-2.62,0.22V168.12z M745.33,174.62l0.53,1.08v-1.08h1.4l0.88-0.65l-2.1-1.73L745.33,174.62z M747.61,190.01l0.88-0.22
		l0.35-0.65l0.35-0.87h2.62l0.88,1.3l1.22-0.43v0.43l1.75,0.43l1.4-0.65l0.35-1.08l-0.35-0.87l2.45-1.08l1.05,0.87l-0.17,1.52h-0.88
		l-0.53-0.43l-0.35,0.22l2.8,4.77v0.43h-1.4v0.22h-0.88l-0.7,0.65l-3.5-2.6l-0.17,1.52l-0.7,1.08l0.18,1.08l0.7,0.65l1.05-0.22
		l0.35-1.08l-0.35-0.22l0.17-0.87l2.97,1.52l0.88-0.65l1.05,0.65l1.22-0.65l0.35-0.87l0.88,0.87l0.18-0.22v-0.22l-1.05-1.08
		l0.35-4.55l1.05-0.65l0.88-2.17h0.53l0.35-0.43l-0.35-0.87l-0.88-0.43v-0.22h-0.18l0.7-2.17l-1.05,0.22l-1.05,1.95l-2.8-1.52
		l0.35,1.73l1.58,1.73l0.17,1.08l-2.8-2.17l-0.7-2.38l-0.7-0.65h-2.97l-1.4,3.04l1.22,1.08l0.35,1.95l-2.45-1.52l-2.28,1.08
		l-2.8-1.08l-0.7-1.73l0.53-1.3l0.35-0.22l0.7,0.65h0.7l0.35-0.87l-1.22-0.65l-0.35-0.65l1.05-1.73h-0.35l-0.52-0.43h-0.7
		l-0.35-0.65l-0.7,0.22l-0.17,0.65l0.35,0.22l-0.88,3.25l0.7,2.38l-0.35,0.87l1.75,1.95l-2.45,3.47l1.23,0.43L747.61,190.01z
		 M747.26,116.74l0.35,0.22h0.17l0.17-0.22l-0.17-0.43l-0.35-0.22L747.26,116.74z M747.43,96.8l1.05,0.87h0.17l0.17-0.22l1.05,0.65
		l1.22-0.87L747.43,96.8z M748.31,153.16l-0.7,1.52l0.88,1.73l0.17-5.42l-0.7,1.52L748.31,153.16z M748.66,195.22l0.53-0.22
		l0.17-0.87l2.45-0.87l-2.1-1.95l0.18-0.65l-0.35-0.43l-0.52,0.22l0.17,0.65l-0.35,0.65v0.87l-0.7,0.22v1.73L748.66,195.22z
		 M748.48,166.38l0.17,0.43h1.23v-0.87l-0.88-0.22L748.48,166.38z M750.58,163.78v-0.43l-0.17-0.43h-0.88l-0.7,0.87l0.88,0.43
		L750.58,163.78z M748.83,203.45l0.53,0.43l0.35-0.43v-0.22l-0.7-0.22L748.83,203.45z M752.68,217.33l-1.23-0.65l0.53-2.38
		l-1.58-1.52h-1.4l1.75,2.17l-0.18,0.87l-0.88,1.08l-0.17,1.52l1.05-0.87l1.75,0.87l0.35-0.22V217.33z M749.53,92.46l0.17,0.22h0.35
		l0.17-0.43l-0.17-0.22h-0.35l-0.17,0.22V92.46z M749.88,89.43l0.52,0.43l0.88-0.22l-0.7-0.43L749.88,89.43z M755.66,200.42
		l0.17-1.52l-0.88-0.65h-4.2l-0.53,0.65l0.17,0.65l4.2-0.22L755.66,200.42z M750.76,196.52l0.52,0.22l0.35-0.22l0.17-0.22
		l-0.17-0.65l-0.88-0.22l-0.18,0.43L750.76,196.52z M751.11,101.35l-0.17-0.65l-0.17,0.65V102L751.11,101.35z M751.11,173.11
		l0.35,0.22l0.35-0.22v-0.87l-0.35-0.43l-0.35,0.22V173.11z M751.46,91.81l-0.17,0.22v0.22l1.58,0.87l-0.7-1.08L751.46,91.81z
		 M751.63,113.27l-0.35-0.65l0.17,1.3L751.63,113.27z M751.46,79.67l0.35,1.08l1.58,1.3l0.52-0.87l-0.52-1.52l-1.23-0.43
		L751.46,79.67z M751.46,169.85l0.18,1.52l0.35-3.04L751.46,169.85z M751.98,87.48l-0.17,1.95l1.4-2.38L751.98,87.48z
		 M751.81,182.64l0.17,0.43h0.88l0.17-0.43l-0.17-0.65l-0.53-0.22l-0.35,0.22L751.81,182.64z M752.86,207.57l-0.17-0.22h-0.53
		l-0.35,0.43l0.17,0.43l0.7-0.22L752.86,207.57z M751.98,139.94v0.43l0.17,0.22l0.35-0.22v-0.65l-0.18-0.22L751.98,139.94z
		 M754.78,138.42l0.17-0.43l0.18-0.65l-2.62-2.82h-0.18l-0.17,0.22l2.1,2.82l-0.18,0.43l0.35,0.43H754.78z M756.18,206.71h-1.92
		l0.17-1.3l1.4-1.3l-3.5,3.04l1.05-0.22l1.75,0.87L756.18,206.71z M753.73,157.93l0.17-1.08l-0.52-0.43l-0.88,2.38L753.73,157.93z
		 M752.68,160.97l-0.17,0.22l0.17,0.65l0.35,0.22l0.35-0.43L752.68,160.97z M753.73,119.56l-1.05,0.87v0.65l1.75,1.95h0.17
		l0.17-2.82l-0.52-0.43L753.73,119.56z M756.88,167.04l-0.88-2.38l-1.23-1.52l-1.05-0.22l-0.88,0.87l0.17,1.08L756.88,167.04z
		 M754.08,202.59h0.18l0.35-0.65l-1.75,0.43v2.38l0.35,0.22l0.35-1.3l0.17,0.22l1.05-0.65l-0.17-0.43L754.08,202.59z M753.56,154.9
		l0.17-0.22l-0.35-0.87l-0.35,0.22v0.65L753.56,154.9z M754.43,148.39l0.17-0.65l-0.53-1.08l-0.88,1.3l0.53,0.87L754.43,148.39z
		 M754.96,215.81l0.18-0.87l-0.18-0.43l-1.05,0.22l-0.52,0.65l0.17,0.87l0.7,0.43l0.17,0.65l0.7-0.43L754.96,215.81z M754.43,173.54
		l-0.7,0.43l-0.17,0.87l0.7-0.22l0.52-0.65L754.43,173.54z M755.31,170.07l-0.53-2.82l-0.52,1.08l0.7,0.87l-1.05,1.3L755.31,170.07z
		 M754.78,218.85l-0.17-0.87l-0.53,0.22l-0.17,0.65v0.43l0.35,0.22L754.78,218.85z M754.26,93.33h0.17l0.35-0.22v-0.65l-0.52,0.22
		V93.33z M754.78,90.08l0.17,0.65l0.18-0.43h0.17v-0.43l-0.17-0.22L754.78,90.08z M755.48,161.83l-0.35,0.22l0.52,0.43h0.17
		l0.18-0.22l-0.35-0.43H755.48z M755.48,92.03l0.53,0.87h0.7l1.58-3.9l-2.62,1.95L755.48,92.03z M755.48,96.37l0.35,0.65l0.53-0.87
		l-0.35-0.87l-0.53,0.22V96.37z M755.66,175.92l0.35,0.43h0.52l0.53,0.22l0.88,1.95l1.22,0.65l0.35-0.43l-2.8-3.9l-0.7,0.22
		l-0.35,0.43V175.92z M757.76,202.37l-1.05-0.65l-1.05,0.22l0.7,1.73L757.76,202.37z M756.18,154.46l-0.35,0.65l0.18,1.3l0.17-1.08
		V154.46z M756.01,85.74l0.52,0.43h0.35l0.17-0.65l-0.35-0.43L756.01,85.74z M756.18,82.71l0.17,0.87h0.35l1.93,0.65l-0.17-1.73
		l-1.58-0.43L756.18,82.71z M756.18,157.28l1.58,0.87l0.88,1.08l-0.53-1.73L756.18,157.28z M757.58,216.24l-0.7,0.22l-0.53,1.52
		l0.53,0.43l0.7-0.43V216.24z M757.06,142.32l-0.17,0.65l1.05,0.22l0.53-0.65v-0.65l-0.7-0.43l-0.35-1.08l-0.52,0.87L757.06,142.32z
		 M756.88,206.27l0.17,1.08l0.88-1.73l-0.53-0.22L756.88,206.27z M759.33,212.56l-0.53-1.95l-0.7-0.43l-0.53,0.43l-0.7,0.43v1.08
		l1.05,1.08h1.22L759.33,212.56z M757.93,96.15h-0.53l-0.17,0.87l0.35,0.43h0.35V96.15z M757.76,191.31l0.52,0.22h0.35l0.17-0.65
		l-0.17-0.65l-1.05-0.22l-0.17,0.43L757.76,191.31z M757.76,77.07l0.35,0.65v0.22l-0.17,0.87l0.35,0.65l0.35-0.43l0.17-1.95
		l-0.7-0.87L757.76,77.07z M757.93,115.44l-0.17,0.43l0.17,0.43l0.35,0.22l0.88-0.87l-0.35-0.43L757.93,115.44z M758.98,169.2
		l-0.17-0.65h-0.7l-0.35,0.43v0.43l1.58,2.17v-0.22h0.17L758.98,169.2z M762.13,176.14l1.4-0.43l1.75-0.43l0.35-0.87l1.58-0.43
		l-1.05-3.9l-1.75,4.77l-4.55-1.3l-0.88-1.73l-1.22,1.95l1.58,1.52l0.52-0.87l0.88,0.22l-0.17,2.38l1.4,1.3l0.7-0.43l0.18-0.65
		l-0.53-0.43L762.13,176.14z M760.91,207.14h0.53l0.35-0.43h0.18l0.17-0.22h2.45l0.35-0.65l-0.17-1.08l-2.45-0.43l-0.53-1.52
		l0.18-0.87l0.52-0.65l0.7-0.22l0.35-0.87l-0.52-0.65h-0.88v-0.22l-0.88-0.43l-0.35,0.43l-0.88-1.08l-1.75,0.43l-0.17,0.87
		l0.17,0.65l0.53,0.22l0.17-0.22l2.28,5.85h-0.17l-0.35,0.65v0.22L760.91,207.14z M758.46,99.83l-0.18,1.08l0.18,0.43l1.22-0.87
		v0.22l0.88-0.87l0.17-0.87l-0.52-0.43v0.22l-0.7-0.87l-1.23,0.65L758.46,99.83z M760.56,92.03l-0.7-1.08l-1.4,0.22L760.56,92.03z
		 M760.21,209.74l-1.23-2.17l-0.35,1.08l0.17,0.87l0.7,0.65L760.21,209.74z M761.08,94.42l-2.1-0.43l1.05,0.65L761.08,94.42z
		 M759.51,152.51l0.35-0.65v-0.87l-0.52,0.65l-0.18,0.87H759.51z M759.33,87.05l0.17,0.87l0.17,0.22h0.35l1.4-1.52h-0.17v-0.22
		L759.33,87.05z M759.51,164.22l0.17,0.43l0.53,0.22h0.35v-0.43l-0.7-1.08L759.51,164.22z M760.03,181.13v0.43l0.53-0.87v-0.22
		l-0.17-0.22l-0.35,0.22l-0.17,0.43L760.03,181.13z M762.31,200.85l-1.22,0.22l-0.18,0.43l-0.35,0.22l-0.17-1.73l0.17-0.22l1.4,0.22
		L762.31,200.85z M760.56,79.67l0.88,0.65h0.7l0.7,0.43l0.88,1.73l-1.05,3.69l-1.05,0.87l0.35,0.87l0.88,0.43l1.05-1.52l-0.53-0.65
		l0.17-0.87l1.58,0.22l0.88-1.52l-0.17-0.65h-0.53l-0.7,0.65l-0.53-3.25l-0.7-0.43l-0.17-1.52L760.56,79.67z M761.43,111.11
		l-0.35,1.73l0.88-0.65h1.4l0.17-0.87l-0.52-0.65L761.43,111.11z M761.78,129.1l0.53-0.43l-0.7-0.65l-0.35,0.22v0.87H761.78z
		 M765.98,216.68l-0.7-1.52h-0.7l-0.53-0.43l0.53-1.95l-0.35-0.87l1.05-1.52v-0.87l2.62-0.22l0.35,0.43l0.7-1.95l-0.88-1.3h-2.8
		l-1.22,2.38l-0.7,0.22l-0.35-0.22l-0.35,0.22v0.43l0.35,0.65v0.65l0.35,0.65v1.73l-1.05,0.22l-1.05,2.17l0.88,2.38h-0.17l0.52,0.43
		h0.88l0.53,0.43l1.05-2.17l0.7,1.52L765.98,216.68z M762.13,95.07l0.17-0.43l-0.17-0.22h-0.53l-0.17,0.22v0.43H762.13z
		 M761.43,100.27l0.53,0.43h0.52l0.53,0.43l0.7-0.65h-0.7l-0.35-2.38L761.43,100.27z M761.43,167.47l1.75-0.65l0.53-1.95l-0.18-0.22
		v-0.22l-0.52-0.87l-0.88,0.43L761.43,167.47z M762.48,102.44h-0.52l-0.18,0.65l1.23-0.22L762.48,102.44z M762.83,92.46h0.52v-0.65
		l-0.52-0.43l-0.18,0.22L762.83,92.46z M763.53,201.5l-0.35,0.43v0.87l0.53,0.43h0.7l0.53-0.43v-0.87l-0.53-0.65L763.53,201.5z
		 M764.41,198.47v-0.43l-0.35-0.22l-0.7,0.22v0.43l0.7,0.22L764.41,198.47z M766.16,86.61l-0.7,0.65l-0.35,1.08l-1.58,1.08
		l0.35,1.08h0.35l0.35-0.43l-0.18-0.43l0.35-0.65h0.35l1.4-1.95L766.16,86.61z M764.06,119.78l0.17-0.22v-0.43l0.35-0.43l-0.18-0.87
		h-0.52l-0.35,2.82l0.35,0.22l0.52-0.43L764.06,119.78z M764.41,160.1l1.58-0.87l0.17-1.95l-0.52-1.08l-2.1,3.25L764.41,160.1z
		 M764.06,103.52l0.35-1.08h-0.35l-0.35,1.52l0.7,0.87L764.06,103.52z M766.33,201.29l-0.88,0.65l0.88,0.43l1.05,0.22l0.17-0.43
		l-0.17-0.43L766.33,201.29z M766.86,165.95l-0.52,0.43l0.35,0.65h1.92l0.7-0.65v-0.65l-0.7-0.22l-0.52,0.65L766.86,165.95z
		 M766.33,191.96l0.17,0.22h0.17v-1.95L766.33,191.96z M767.56,198.9l-0.17-0.87h-0.53l-0.17,0.43l0.17,0.43H767.56z M769.13,195.87
		l0.17-0.43l-0.7-0.87l-1.4-0.22l-0.18,0.65L769.13,195.87z M788.03,217.33l0.17-2.82l0.53-0.87l-0.53-0.43l-0.35,0.22v0.65
		l-0.53,0.87l0.17,0.87l-2.27,1.08l0.35-2.82l1.58-1.95l-1.58-0.65l-1.58,1.3v1.3l-2.62,3.69l-0.7-0.43l-0.35-1.08l0.35-1.52
		l-1.92-4.77l-1.58,1.08l0.53,0.65v1.95l-0.7,0.22l-0.53-0.65l-0.88-0.22l-0.17-2.82l-3.5-2.17l-0.52-1.08l-0.7-0.43l-0.88,0.43
		l-0.17,3.04l-2.28,1.3l-0.17,0.65l1.05,0.22l0.17,0.22l-0.17,0.87l0.35,0.65l4.73-2.6l0.52,1.08l-4.02,3.9l5.08,6.29l2.27,0.22
		l0.17-0.22l-0.17-0.22h-0.35l-0.7-4.12l0.7-0.22l0.52,0.22v0.87l1.75,2.17l1.4-0.43l0.53-0.65h0.52v-0.22l0.53-0.22l0.7,0.22
		l0.35-0.43v-0.43h-0.35l-1.05-1.08l0.52,0.22l2.45-1.3l2.28,2.82l0.35-1.73L788.03,217.33z M767.56,200.2l0.53,0.43l0.35-0.43
		l-0.53-0.43h-0.17L767.56,200.2z M769.48,196.52l0.18,0.65h-0.53l0.17,0.87l1.75,0.65v1.52l-1.58,1.73l-0.52,2.6l1.58,1.08
		l3.32-1.52l0.35,1.95l1.22,1.3l0.53-0.87l1.58,0.22l0.17,1.3l-0.7,0.65l2.97,2.17l0.53,1.95l0.88,0.43l-0.52-1.52l1.4-1.73
		l-0.88-1.08l-0.88,0.65v-0.22l-0.17-0.22v-0.22l-0.17-0.22l0.17-0.22l0.88-0.43l0.17-1.95l3.67-0.43l-1.05,2.38l1.75,0.22
		l0.17-1.95l-0.17-0.22l1.75-3.9l-2.27-2.82l-0.18,1.3l-0.7,0.65l-1.05-0.22l-1.22,0.65l1.4,0.43l1.05,1.95l-4.9-1.08l-0.53-1.52
		l-0.88,1.52l-0.88,0.22v-0.22l-0.88-1.73l-0.52,0.65l-0.7-0.22l-0.35-0.65v-1.3l1.75-0.43l-0.53-0.65l-2.1-0.22l-1.75,2.17
		l-0.7-0.22l0.17-1.73l-0.7-1.52l-0.7,0.22l-0.35-0.22h0.17l-0.17-0.65l-0.35-0.22L769.48,196.52z M772.98,208.87v-0.22l0.18,0.22
		v0.22L772.98,208.87z M776.31,196.73l0.7,0.87l0.17-1.08l-0.52-0.87h-0.18l-0.17,0.22V196.73z M778.23,216.89v-0.43l-0.7-0.43
		l0.17-1.08l1.22,0.87v0.65L778.23,216.89z M779.81,217.54h0.17l-0.7,0.87l-0.7,0.65l0.17-0.87l-0.17-0.22l0.35-0.22l0.17-0.43h0.53
		L779.81,217.54z M779.63,198.68h0.35l0.18-0.22v-0.65h-0.35L779.63,198.68z M783.83,208.66l-0.35,1.52l-0.35,1.08l-1.05,0.65
		l1.22,0.65l1.05-2.6L783.83,208.66z M784.01,197.82l0.35,0.22l0.35-0.22l0.17-0.65l-0.17-0.22h-0.7V197.82z M819.18,218.63
		l-0.53-1.08l-0.52,0.22l-0.17,0.65h-0.88l-1.93-1.52v-0.43l-0.17-0.22l0.53-1.52h0.7l0.7-0.65l-1.57-0.43l-0.88-2.38l-2.8-0.22
		l-0.35-0.87l-3.15-1.08l-4.9,2.38l0.17,1.08h-0.17v0.22l-3.68,0.65l0.35-1.3l-1.05-1.73l-0.7-0.22l-0.18-0.65l0.18-0.65l0.52-0.43
		v-0.87l-0.17-0.22l-0.7,0.43l-0.52,2.38h-1.4l-0.17-1.52l0.7-1.73l-0.7-0.43l-1.75,1.95h-0.35l-0.35-1.52l-1.05-0.43l-0.88-1.73
		h-2.28l-0.17,0.65l-1.05,0.87l0.35,0.87l0.35,0.22l1.23-1.08l0.7,0.22l0.17,0.22v0.22l-0.7,0.87l-0.17,2.38l-1.05,0.87h-2.1
		l2.45,1.3l0.35-0.65l1.23,0.22l1.05,1.73l0.88-0.87v-2.38l1.4-1.52l2.27,2.82l-0.52,1.3l1.4,2.82l0.7,0.43l0.88-1.95l1.58,2.17
		l1.22-0.22l0.7,0.43l0.88-0.22v-0.87l-0.52-0.87l0.52-0.65l0.7-0.22l2.45,1.08l1.05-1.08h0.53l0.17,1.52l0.7,0.87l0.7-0.22
		l2.45-3.9h2.1l0.35,0.65v1.73l-1.58,2.82l3.15,1.95l0.35,1.73l0.52-0.87l-0.52-0.87l2.62,0.22L819.18,218.63z M787.16,208.66
		l-0.17,0.65l0.52,0.22l0.35-0.65l-0.18-0.22H787.16z M789.43,217.98l-0.7-0.65h-0.35l-0.17,0.43l0.88,0.65h0.17L789.43,217.98z
		 M789.26,215.59h0.53l0.35-0.43l-0.17-0.22h-0.88L789.26,215.59z M789.43,201.94l0.35,0.87l0.7-0.22l0.7-0.87l0.17-1.3l-0.53-0.65
		l-1.05,0.22L789.43,201.94z M794.16,220.58l-2.62-0.22l-0.7-0.43l-1.05,0.43l1.22,0.87l0.53-0.43l1.22,0.87L794.16,220.58z
		 M796.08,216.24l-0.88-0.65l-0.52,0.22l-0.7-0.43l0.17-1.95l-0.35-0.22l-1.4,0.87l-0.88,1.73v1.3h4.2L796.08,216.24z
		 M791.71,203.02l1.05,1.52l1.58,1.08l0.35-1.08l-0.53-1.73l-1.58-0.43L791.71,203.02z M795.91,204.97h0.17v-0.22h3.33l-0.17-0.87
		l-2.28-1.73l-0.17-0.87L795.91,204.97z M796.96,212.78l1.4-0.65v0.43L796.96,212.78z M798.88,221.01l-0.35-0.43l-0.35,0.22
		l-0.18,0.87l0.7-0.22L798.88,221.01z M799.23,199.55l0.35,0.65v0.43l-0.17,1.08l0.35,0.43l0.7-0.43l-0.17-2.17l-0.53-0.87h-0.52
		V199.55z M802.21,208.87h-2.8l1.92,1.3l0.17,0.43h0.35l0.7-1.3L802.21,208.87z M800.81,220.8l-0.18-1.3l-0.52,0.65l-0.35,0.87
		l0.18,0.22L800.81,220.8z M800.28,218.85l0.17-0.65v-0.87l-0.52,0.22v0.65L800.28,218.85z M801.16,204.54l-0.7,0.22l0.88,1.95
		l1.23,1.3h0.35l0.17-0.65l-0.35-0.65l0.35-1.95l-1.4-0.87L801.16,204.54z M801.86,202.59l0.52,0.43l0.53-0.22l0.17-0.65l-0.17-0.43
		h-0.35L801.86,202.59z M802.03,198.9l0.35,1.08h1.75l0.88,0.65l-0.35-1.95l-1.75-0.65L802.03,198.9z M808.16,220.15l-0.7-1.08
		l-2.1-2.17l-1.22,1.52l2.1,0.22l1.75,2.6L808.16,220.15z M806.23,211.26h0.53l-0.18,0.65l-0.17,0.43h-0.17v0.22l-0.35-0.65h-0.18
		l0.18-1.08L806.23,211.26z M806.23,206.92l0.53,0.65l0.35-0.22v-1.52h-0.7L806.23,206.92z M807.46,199.77l0.88,0.87l0.7-0.87
		l1.05,1.08l-0.35-1.52L807.46,199.77z M808.68,210.39l0.88,0.65l-0.35,0.22v0.22h-0.52l-0.17-0.22h-0.35l-0.35-0.65L808.68,210.39z
		 M810.43,201.5l0.17,0.43h0.53l0.35-0.43l-0.7-0.43L810.43,201.5z M811.83,204.75h-0.52l-0.53,0.22l-0.17,0.65l0.17,0.43l0.53,0.22
		l0.88-1.08L811.83,204.75z M811.66,195.22l0.17,0.65h0.35l0.35-0.43l-0.7-0.43L811.66,195.22z M813.41,200.64l-1.22,0.87h0.88
		l0.53,0.65h0.7v-0.87L813.41,200.64z M813.58,220.36l-0.18-0.43h-0.7v0.43l0.53,0.43h0.17L813.58,220.36z M815.16,206.49
		l-1.05,0.22h-0.52l-0.18,0.43l0.35,0.65l1.75-0.22L815.16,206.49z M816.21,210.82l0.52,1.3l0.7-1.3l-0.53-1.08l-0.52,0.22
		L816.21,210.82z M816.73,201.94l0.17,0.65l0.35,0.22l0.52-0.22l0.18-0.43l-0.18-0.43h-0.88L816.73,201.94z M820.58,211.69
		l-1.05-0.65l0.53-1.52l-1.22-1.3l0.7,5.2h0.35v-0.43L820.58,211.69z M823.03,220.36l-0.17-1.08l-0.7,0.43l-1.4-1.73l0.35,1.73
		L823.03,220.36z M821.28,210.39l0.53,0.87l0.53,0.22v-0.65l-0.35-0.43H821.28z M823.38,211.91l0.17,0.43l2.62-0.22l-1.22-1.3
		L823.38,211.91z M823.91,216.68h0.7l-0.17-0.65l-0.53-0.43h-0.17l-0.17,0.43L823.91,216.68z M827.58,214.29l-2.98,2.6l-0.17,1.3
		l0.7,1.08l0.7-0.22L827.58,214.29z M828.98,217.76l-0.17-0.43l-0.52,0.22l-0.18,0.43l0.18,0.22L828.98,217.76z"/>
</g>
<path transform="translate(820 44)" fill="#1f1f1f" d="M910.1,10v405H9.9V10H910.1 M920.1,0h-10H9.9h-10v10v405v10h10h900.2h10v-10V10V0L920.1,0z"/>
</svg>
